<svg xmlns="http://www.w3.org/2000/svg" xmlns:xlink="http://www.w3.org/1999/xlink" width="1608" zoomAndPan="magnify" viewBox="0 0 1206 383.999986" height="512" preserveAspectRatio="xMidYMid meet" version="1.0"><defs><filter x="0%" y="0%" width="100%" height="100%" id="0660b0414d"><feColorMatrix values="0 0 0 0 1 0 0 0 0 1 0 0 0 0 1 0 0 0 1 0" color-interpolation-filters="sRGB"/></filter><g/><mask id="aaa655f54c"><g filter="url(#0660b0414d)"><rect x="-120.6" width="1447.2" fill="#000000" y="-38.399999" height="460.799983" fill-opacity="0.59"/></g></mask><clipPath id="93f26cbc46"><path d="M 2 48 L 408 48 L 408 316 L 2 316 Z M 2 48 " clip-rule="nonzero"/></clipPath><clipPath id="6953115e7d"><path d="M 71.417969 0.285156 L 466.273438 124.726562 L 396.160156 347.191406 L 1.308594 222.75 Z M 71.417969 0.285156 " clip-rule="nonzero"/></clipPath><clipPath id="71b25eb1a3"><path d="M 71.417969 0.285156 L 466.273438 124.726562 L 396.160156 347.191406 L 1.308594 222.75 Z M 71.417969 0.285156 " clip-rule="nonzero"/></clipPath><clipPath id="cecf307580"><path d="M 4 50 L 406 50 L 406 314 L 4 314 Z M 4 50 " clip-rule="nonzero"/></clipPath><clipPath id="c2ff84fdb0"><path d="M 71.417969 0.285156 L 466.273438 124.726562 L 396.160156 347.191406 L 1.308594 222.75 Z M 71.417969 0.285156 " clip-rule="nonzero"/></clipPath><clipPath id="1af99ec8f4"><path d="M 71.417969 0.285156 L 466.273438 124.726562 L 396.160156 347.191406 L 1.308594 222.75 Z M 71.417969 0.285156 " clip-rule="nonzero"/></clipPath><clipPath id="6919a2b036"><rect x="0" width="467" y="0" height="349"/></clipPath></defs><g mask="url(#aaa655f54c)"><g transform="matrix(1, 0, 0, 1, 739, 18)"><g clip-path="url(#6919a2b036)"><g clip-path="url(#93f26cbc46)"><g clip-path="url(#6953115e7d)"><g clip-path="url(#71b25eb1a3)"><path stroke-linecap="round" transform="matrix(1.044372, 0.329143, -0.329143, 1.044372, 38.180547, -25.396887)" fill="none" stroke-linejoin="round" d="M 283.479012 15.00046 C 283.74953 15.016192 284.021306 15.024046 284.298629 15.037633 C 284.83482 15.089325 285.379074 15.130995 285.922069 15.180543 C 286.185597 15.209698 286.45826 15.232234 286.729665 15.262648 C 287.262083 15.33797 287.795572 15.416695 288.329062 15.49542 C 288.591333 15.532453 288.855747 15.57629 289.120162 15.620127 C 289.647549 15.726958 290.171533 15.834861 290.694444 15.939361 C 290.958674 15.994478 291.219501 16.050666 291.4814 16.110257 C 291.991403 16.245008 292.505882 16.382089 293.023762 16.518097 C 293.282074 16.59004 293.532508 16.660725 293.789747 16.729265 C 294.299194 16.897854 294.800764 17.065185 295.304664 17.228041 C 295.557058 17.31681 295.808379 17.402176 296.055226 17.485213 C 296.551765 17.684052 297.042757 17.877158 297.538223 18.072594 C 298.266185 18.400474 298.989672 18.726023 299.716562 19.0505 C 299.972873 19.175437 300.229185 19.300374 300.487826 19.420836 C 300.983067 19.69863 301.476162 19.969619 301.97033 20.244011 C 302.217322 20.386847 302.459838 20.527352 302.702355 20.667857 C 303.172336 20.972314 303.638914 21.277842 304.108894 21.582299 C 304.337616 21.738372 304.570813 21.896776 304.802937 22.051778 C 305.244255 22.383969 305.688791 22.726366 306.130109 23.058557 C 306.348438 23.229127 306.564437 23.404172 306.781694 23.57134 C 307.20097 23.9404 307.614699 24.303727 308.033974 24.672787 C 308.237436 24.855524 308.443043 25.045064 308.646505 25.2278 C 309.033716 25.625667 309.420927 26.023534 309.813871 26.415854 C 310.00461 26.617561 310.198752 26.818196 310.386089 27.020975 C 310.75037 27.441029 311.107847 27.863229 311.470871 28.29116 C 311.645671 28.501631 311.824945 28.714431 312.002962 28.935109 C 312.331777 29.385043 312.667396 29.832832 313.000685 30.285095 C 313.161691 30.511135 313.32717 30.739504 313.489247 30.968945 C 313.797277 31.447871 314.096357 31.922137 314.400985 32.402135 C 314.551597 32.64267 314.70221 32.883206 314.846017 33.125885 C 315.12324 33.625741 315.398133 34.130072 315.673026 34.634402 C 315.804297 34.884773 315.941114 35.140877 316.074529 35.398053 C 316.318616 35.923313 316.567177 36.450903 316.811263 36.976164 C 316.928738 37.242103 317.050689 37.510373 317.164762 37.777385 C 317.383589 38.329308 317.597941 38.8789 317.809962 39.432967 C 317.915973 39.710001 318.018582 39.988106 318.12119 40.266212 C 318.302406 40.841209 318.488095 41.418536 318.671641 41.989058 C 318.763857 42.28166 318.851598 42.571932 318.939339 42.862204 C 319.09315 43.457058 319.243559 44.052985 319.39737 44.64784 C 319.471316 44.95368 319.543118 45.252715 319.611517 45.552823 C 319.731119 46.16968 319.855196 46.788867 319.97587 47.409125 C 320.032805 47.720327 320.092069 48.027054 320.143272 48.343803 C 320.232067 48.981589 320.324265 49.618303 320.409657 50.257162 C 320.508641 51.235844 320.60082 52.21667 320.696402 53.196424 C 320.730511 53.660691 320.76462 54.124957 320.798729 54.589224 C 320.822716 55.531697 320.847961 56.466293 320.868732 57.398558 C 320.87455 57.868001 320.880368 58.337443 320.89066 58.809216 C 320.857179 59.747359 320.825842 60.692307 320.797908 61.636182 C 320.779909 62.11313 320.752961 62.585419 320.73622 63.05449 C 320.648301 64.00979 320.560382 64.965089 320.479268 65.918244 C 320.426359 66.391233 320.375595 66.871028 320.327161 67.346347 C 320.189464 68.309854 320.048366 69.274433 319.905122 70.232207 C 319.829469 70.716105 319.750414 71.201075 319.673689 71.681571 C 319.476008 72.656501 319.277255 73.62803 319.082976 74.601888 C 318.979032 75.090962 318.869541 75.574303 318.769 76.062305 C 318.511334 77.048659 318.259401 78.029467 318.00854 79.013677 C 317.872903 79.508999 317.74407 80.002177 317.607361 80.494096 C 317.297588 81.493133 316.98567 82.485365 316.675897 83.484401 C 316.518773 83.982754 316.353773 84.47985 316.193246 84.979275 C 315.825819 85.985261 315.460536 86.998052 315.094181 88.00744 C 314.904292 88.508639 314.716547 89.016643 314.520925 89.523389 C 314.10139 90.542057 313.676123 91.566272 313.253186 92.586012 C 313.033747 93.100264 312.817711 93.613443 312.598273 94.127695 C 312.113021 95.163334 311.635646 96.200231 311.154869 97.238199 C 310.90947 97.753153 310.663885 98.279385 310.411681 98.796483 C 309.87092 99.845876 309.334633 100.897599 308.798346 101.949322 C 308.523397 102.477328 308.245047 103.006406 307.969026 103.53101 C 307.373827 104.597559 306.772896 105.669655 306.176624 106.732802 C 305.871055 107.270459 305.567816 107.803641 305.262246 108.341297 C 304.609207 109.426075 303.955096 110.507451 303.302057 111.592229 C 302.967124 112.131659 302.632006 112.682369 302.293671 113.222871 C 301.58172 114.322475 300.870841 115.425482 300.158889 116.525087 C 299.794408 117.07757 299.429926 117.630053 299.063115 118.18701 C 298.293323 119.304843 297.523532 120.422677 296.746936 121.542655 C 295.528677 123.24318 294.302541 124.942448 293.076405 126.641715 C 292.797063 127.025235 292.509845 127.407496 292.230504 127.791016 C 291.639056 128.5609 291.044205 129.331857 290.453829 130.105144 C 290.153002 130.491695 289.852174 130.878245 289.552419 131.268199 C 288.922473 132.046476 288.297001 132.827083 287.674932 133.606618 C 287.35369 133.999603 287.038181 134.38704 286.720341 134.778952 C 286.062104 135.562405 285.408341 136.348189 284.746702 137.132714 C 284.418655 137.527843 284.086134 137.920642 283.753613 138.313441 C 283.072817 139.096523 282.389691 139.88408 281.705493 140.668234 C 281.357218 141.058517 281.015562 141.457935 280.670689 141.847146 C 279.967335 142.629858 279.260578 143.413641 278.553821 144.197424 C 278.201071 144.585378 277.842589 144.978878 277.488767 145.363429 C 276.766256 146.144696 276.041601 146.91916 275.313543 147.694695 C 274.588888 148.469158 273.86083 149.244694 273.130627 150.013424 C 271.632281 151.52544 270.137337 153.036384 268.645795 154.546256 C 268.2696 154.919156 267.890003 155.293129 267.51721 155.664958 C 266.758201 156.401624 266.001522 157.133815 265.240368 157.863677 C 264.863101 158.233175 264.487091 158.594796 264.107679 158.95749 C 263.341164 159.67034 262.583784 160.37657 261.820671 161.088348 C 261.445919 161.442092 261.059888 161.795651 260.684064 162.145993 C 259.924725 162.834139 259.163241 163.515481 258.403901 164.203628 C 258.020386 164.541433 257.641345 164.881567 257.261232 165.2183 C 256.503521 165.876011 255.749213 166.53265 254.993833 167.185886 C 254.617307 167.510267 254.23738 167.83572 253.860854 168.160101 C 253.113907 168.780757 252.36463 169.405888 251.617683 170.026544 C 251.247076 170.334099 250.871994 170.639323 250.500314 170.943476 C 249.765203 171.530479 249.02669 172.118555 248.290506 172.702157 C 247.928147 172.988411 247.560055 173.280211 247.193221 173.564135 C 246.474606 174.108537 245.752588 174.654011 245.032901 175.195011 C 243.970938 175.967311 242.91811 176.732992 241.854002 177.498488 C 241.593754 177.681495 241.327774 177.870049 241.064123 178.054128 C 240.581238 178.397068 240.097096 178.747885 239.617613 179.089752 C 239.503336 179.178132 239.386914 179.259707 239.270492 179.341281 C 238.95525 179.575283 238.641266 179.801408 238.326024 180.035409 C 238.053053 180.237387 237.787959 180.440623 237.516061 180.646003 C 237.365244 180.760859 237.2155 180.879118 237.067014 180.989499 C 236.997338 181.041381 236.929807 181.100067 236.856729 181.15302 C 236.745854 181.240327 236.638381 181.326562 236.529651 181.420674 C 236.478244 181.459317 236.43024 181.496887 236.384381 181.541263 C 236.31685 181.599949 236.252721 181.657562 236.18519 181.716248 C 236.143805 181.762953 236.106895 181.811989 236.062108 181.859766 C 236.062995 181.874448 236.063881 181.88913 236.057964 181.905956 C 236.101267 181.948413 236.144569 181.99087 236.187872 182.033327 C 236.217937 182.057514 236.248002 182.081702 236.274664 182.106962 C 236.378653 182.163956 236.481384 182.228826 236.576237 182.29244 C 236.63548 182.326133 236.692578 182.353021 236.75182 182.386715 C 236.900555 182.467009 237.057167 182.548562 237.20483 182.625454 C 237.287703 182.662921 237.369319 182.708264 237.452192 182.745731 C 237.657138 182.838232 237.854207 182.929476 238.053421 183.027525 C 238.160998 183.072167 238.266244 183.121284 238.374893 183.169329 C 238.613492 183.273666 238.856565 183.380333 239.099638 183.487001 C 239.225113 183.540963 239.350588 183.594926 239.479465 183.647816 C 239.758521 183.761845 240.038649 183.879276 240.318777 183.996707 C 240.462151 184.05999 240.606782 184.115396 240.752486 184.174204 C 241.227724 184.364795 241.695085 184.554128 242.169251 184.741316 C 242.689421 184.943928 243.201713 185.145283 243.716336 185.342162 C 244.261209 185.55195 244.812887 185.759593 245.36242 185.960432 C 246.130509 186.249483 246.895381 186.528327 247.666872 186.816306 C 248.474531 187.100366 249.278788 187.385499 250.087519 187.672962 C 250.494751 187.81392 250.900911 187.951476 251.310287 188.099238 C 252.122606 188.37435 252.940658 188.643914 253.757452 188.921356 C 254.955001 189.303216 256.146817 189.690623 257.340964 190.073556 C 258.161531 190.327366 258.975294 190.583321 259.794789 190.83373 C 261.44347 191.294089 263.101286 191.747829 264.757844 192.209445 C 265.589174 192.426201 266.419247 192.650834 267.250578 192.867589 C 268.951037 193.266747 270.644876 193.65677 272.345334 194.055928 C 273.19745 194.243691 274.054041 194.433784 274.906157 194.621548 C 276.660722 194.955029 278.415288 195.288511 280.160905 195.617332 C 280.606305 195.701378 281.04956 195.778619 281.490485 195.860334 C 282.385058 196.004795 283.285178 196.154987 284.180823 196.30285 C 284.633213 196.373472 285.0822 196.445166 285.53226 196.520262 C 286.448505 196.650412 287.359017 196.786109 288.275262 196.916259 C 288.733384 196.981333 289.194909 197.045336 289.653032 197.110411 C 290.588618 197.230725 291.523132 197.347636 292.457647 197.464547 C 292.928306 197.521931 293.398966 197.579314 293.866223 197.63777 C 294.822409 197.74037 295.776265 197.847446 296.735854 197.948974 C 297.212246 198.000811 297.69204 198.051575 298.176309 198.104669 C 299.156497 198.188485 300.132025 198.281249 301.113285 198.368467 C 301.602214 198.412612 302.094546 198.455685 302.58795 198.50216 C 303.591954 198.578469 304.592556 198.655851 305.595489 198.728758 C 306.101429 198.767542 306.605226 198.799521 307.111166 198.838305 C 308.137915 198.903706 309.166994 198.964632 310.197145 199.028961 C 310.714551 199.056651 311.233028 199.087743 311.750434 199.115433 C 312.809062 199.163307 313.864287 199.212253 314.919512 199.261199 C 315.450527 199.284599 315.986017 199.31033 316.517032 199.333731 C 317.600734 199.366222 318.685508 199.402115 319.774757 199.440338 C 321.436034 199.477815 323.101786 199.517622 324.763064 199.5551 C 325.824393 199.57594 326.881247 199.59445 327.942576 199.615291 C 330.052366 199.616143 332.164486 199.612521 334.270874 199.614446 C 335.328099 199.610398 336.380849 199.60402 337.438075 199.599971 C 339.54306 199.549974 341.655922 199.501235 343.768784 199.452496 C 344.824236 199.419084 345.877358 199.390147 346.938356 199.362468 C 349.061095 199.261992 351.188309 199.163846 353.31212 199.066773 C 354.37815 199.007586 355.442922 198.956276 356.508952 198.897088 C 358.660724 198.74632 360.809094 198.596623 362.959608 198.453731 C 364.04069 198.371098 365.121773 198.288466 366.19838 198.203503 C 368.393867 198.001554 370.58255 197.80175 372.778037 197.599801 C 373.874172 197.493723 374.980514 197.384428 376.078979 197.273876 C 378.326058 197.022005 380.568662 196.767804 382.813596 196.509128 C 383.377603 196.447325 383.942868 196.377645 384.509205 196.311368 C 386.224341 196.092493 387.939477 195.873618 389.652283 195.659217 C 391.398226 195.419412 393.141839 195.184082 394.878833 194.939617 C 396.061841 194.765017 397.235714 194.597036 398.418722 194.422436 C 400.211411 194.152938 402.003028 193.880037 403.793572 193.603734 C 404.147561 193.552016 404.502808 193.492421 404.856797 193.440703 C 405.5184 193.344401 406.1766 193.249172 406.841605 193.151799 C 407.000959 193.13524 407.161571 193.110804 407.31878 193.08744 C 407.761931 193.033804 408.207413 192.975693 408.648419 192.915252 C 408.909473 192.889083 409.175186 192.853965 409.435167 192.824394 C 409.561755 192.81068 409.691746 192.795895 409.818334 192.782181 C 410.036414 192.762075 410.260227 192.736422 410.482782 192.718646 C 410.587884 192.707964 410.689584 192.698354 410.797015 192.683197 C 410.966391 192.674701 411.141499 192.660657 411.309802 192.648758 C 411.387685 192.646654 411.4713 192.639004 411.549183 192.6369 C 411.659832 192.63195 411.774955 192.629331 411.886676 192.627784 C 411.990334 192.636258 412.086116 192.643474 412.18297 192.654093 C 412.217695 192.669332 412.246872 192.678837 412.278195 192.695148 C 412.333849 192.741193 412.387174 192.791712 412.437096 192.843304 C 412.461428 192.873038 412.489163 192.9017 412.51135 192.92463 C 412.550694 193.001997 412.583234 193.081509 412.622578 193.158876 C 412.638848 193.198632 412.651715 193.23946 412.671387 193.278144 C 412.685657 193.370894 412.700999 193.467047 412.719743 193.562127 C 412.713929 193.70983 412.715992 193.858792 412.711251 194.009898 C 412.706034 194.052685 412.70189 194.098874 412.691126 194.135929 C 412.673001 194.208967 412.651474 194.283076 412.628875 194.353783 C 412.613636 194.388508 412.601801 194.422161 412.589965 194.455813 C 412.54159 194.515942 412.49769 194.578402 412.448242 194.635128 C 412.424055 194.665193 412.395393 194.692928 412.367803 194.724064 C 412.283446 194.776832 412.196944 194.822796 412.109184 194.876636 C 412.061365 194.902927 412.012475 194.925816 411.965729 194.95551 C 411.82283 195.000545 411.687808 195.046839 411.545982 195.095277 C 411.47113 195.118867 411.392876 195.143529 411.314622 195.168192 C 411.106192 195.218919 410.903495 195.2641 410.695065 195.314827 C 410.636152 195.329653 410.582973 195.338933 410.527463 195.352687 C 410.400689 195.37768 410.270513 195.403745 410.143739 195.428737 C 410.073548 195.443378 410.009089 195.452472 409.93997 195.470515 C 409.79171 195.498539 409.64578 195.522089 409.494117 195.551185 C 409.416049 195.564568 409.334578 195.579023 409.257582 195.595809 C 408.994013 195.637732 408.734919 195.681985 408.46902 195.728382 C 408.166953 195.778698 407.868288 195.827941 407.565149 195.874854 C 406.303887 196.074116 405.039222 196.274451 403.779218 196.465836 C 401.756984 196.766535 399.732605 197.060429 397.705896 197.358797 C 394.97624 197.729094 392.246584 198.099391 389.512454 198.467357 C 386.741826 198.790722 383.979074 199.115345 381.207188 199.446587 C 379.822595 199.598692 378.439075 199.754198 377.053224 199.91418 C 374.283523 200.181148 371.511492 200.452591 368.739461 200.724034 C 364.614757 201.058976 360.49793 201.395175 356.377701 201.732447 C 356.260247 201.739541 356.147268 201.748966 356.029815 201.75606 C 355.651494 201.778043 355.274245 201.803429 354.896996 201.828815 C 354.348227 201.855893 353.800531 201.886374 353.256237 201.915782 C 352.32593 201.954636 351.399025 201.992419 350.474451 202.025726 C 349.449435 202.060767 348.427822 202.094735 347.400661 202.122971 C 346.295617 202.15331 345.191832 202.175773 344.088046 202.198236 C 342.919987 202.218513 341.759804 202.240048 340.590673 202.256923 C 338.978059 202.278914 337.364374 202.297503 335.753019 202.311618 C 333.27297 202.322727 330.794179 202.32596 328.31879 202.32812 C 326.308555 202.310853 324.302794 202.295916 322.299364 202.276504 C 321.15675 202.25884 320.007331 202.24332 318.864717 202.225656 C 317.791036 202.201228 316.715026 202.181274 315.641346 202.156846 C 314.652353 202.128169 313.66336 202.099493 312.676698 202.066341 C 312.081409 202.040755 311.490595 202.017499 310.892976 201.996388 C 310.747603 201.986099 310.604374 201.982615 310.464548 201.978059 C 310.057605 201.956699 309.651735 201.938741 309.24139 201.918453 C 308.871688 201.896578 308.498584 201.875774 308.124407 201.851568 C 307.895604 201.837651 307.670203 201.822661 307.441399 201.808744 C 307.127022 201.784394 306.812644 201.760043 306.498266 201.735692 C 305.925907 201.687919 305.360353 201.638 304.789066 201.593629 C 303.668165 201.490576 302.556398 201.380903 301.437827 201.273375 C 300.879077 201.221312 300.32606 201.163703 299.770713 201.110568 C 298.68169 200.989987 297.592668 200.869406 296.502573 200.745423 C 295.959763 200.684596 295.420355 200.622698 294.879875 200.557396 C 293.812525 200.422505 292.753051 200.288871 291.686958 200.146103 C 291.16116 200.079915 290.633217 200.006922 290.102944 199.938404 C 289.062998 199.783655 288.028598 199.634639 286.986322 199.484364 C 286.473246 199.399206 285.95551 199.322996 285.437775 199.246787 C 284.4195 199.077727 283.401226 198.908667 282.390828 198.740866 C 281.881155 198.654635 281.378286 198.566259 280.868613 198.480028 C 279.875413 198.295585 278.877738 198.108813 277.881135 197.925443 C 277.386329 197.827045 276.893667 197.735453 276.395459 197.638128 C 275.422858 197.435973 274.443453 197.235962 273.462975 197.032548 C 272.977304 196.927532 272.492705 196.825918 272.008106 196.724304 C 271.043753 196.500848 270.084947 196.283124 269.123997 196.058595 C 268.644058 195.948032 268.167522 195.836396 267.687583 195.725833 C 266.74383 195.484664 265.797746 195.247969 264.850591 195.007872 C 264.378715 194.887287 263.91024 194.76563 263.438364 194.645045 C 262.505004 194.38938 261.575045 194.132642 260.63954 193.870172 C 260.175726 193.739565 259.711912 193.608959 259.244696 193.479425 C 258.326388 193.200314 257.400018 192.931225 256.47938 192.656588 C 256.019154 192.51363 255.56 192.374075 255.104249 192.233447 C 254.188456 191.938582 253.279469 191.641573 252.368151 191.349038 C 251.458092 191.048626 250.548032 190.748214 249.637972 190.447802 C 247.835792 189.78522 246.034684 189.126041 244.236978 188.465789 C 241.55041 187.382496 238.867244 186.298131 236.179603 185.211436 C 235.016675 184.713937 233.854819 184.21984 232.690819 183.718938 C 231.950387 184.217852 231.209955 184.716765 230.469523 185.215679 C 230.329285 185.30476 230.189047 185.39384 230.048808 185.482921 C 229.974658 185.532472 229.899435 185.578621 229.821883 185.629244 C 229.530127 185.80722 229.238371 185.985196 228.947687 186.166575 C 228.595575 186.378533 228.237731 186.596039 227.882218 186.80907 C 227.479958 187.051794 227.075553 187.287714 226.669891 187.531511 C 226.228947 187.793908 225.786931 188.052902 225.342586 188.316371 C 225.030415 188.50078 224.716101 188.678385 224.407333 188.861723 C 223.442532 189.420127 222.483463 189.972985 221.522064 190.530318 C 220.827347 190.925057 220.1303 191.324271 219.437727 191.725815 C 218.03524 192.485746 216.623618 193.252295 215.221131 194.012225 C 214.513175 194.388695 213.805219 194.765165 213.104069 195.13949 C 211.67063 195.860551 210.241666 196.583942 208.81396 197.299456 C 208.092766 197.657657 207.373902 198.011383 206.658441 198.364036 C 205.200855 199.044083 203.7456 199.719656 202.290345 200.395229 C 201.55717 200.727283 200.828471 201.061667 200.096368 201.397123 C 198.612492 202.029352 197.13309 202.663911 195.653688 203.29847 C 194.909605 203.607779 194.164265 203.924966 193.423584 204.233203 C 191.909829 204.829966 190.405208 205.420109 188.893782 206.012396 C 188.139863 206.302364 187.378068 206.591074 186.620746 206.882114 C 185.081772 207.43446 183.547272 207.989136 182.01403 208.535936 C 181.238996 208.806376 180.467364 209.075745 179.691257 209.342783 C 178.127064 209.850713 176.565015 210.365448 174.994017 210.875522 C 174.211477 211.122146 173.42106 211.367513 172.636189 211.618612 C 171.039972 212.08427 169.444827 212.553331 167.84861 213.01899 C 167.048357 213.245014 166.243444 213.479988 165.443191 213.706012 C 163.816022 214.132802 162.192256 214.558519 160.565088 214.985308 C 159.744791 215.195208 158.926825 215.400633 158.106529 215.610533 C 156.446265 215.991648 154.791547 216.378496 153.128953 216.764086 C 152.297748 216.951242 151.463141 217.13947 150.630864 217.323223 C 148.936246 217.666541 147.243773 218.016665 145.549155 218.359983 C 144.703639 218.525467 143.85132 218.693095 142.999 218.860723 C 141.27343 219.165173 139.544458 219.470695 137.822291 219.774072 C 136.948856 219.922173 136.083298 220.071531 135.215595 220.214085 C 133.452269 220.48181 131.694676 220.743988 129.931351 221.011713 C 129.047007 221.13707 128.159261 221.263499 127.272588 221.39333 C 125.476166 221.615381 123.681889 221.844237 121.877591 222.065031 C 120.980009 222.172118 120.071148 222.279019 119.173566 222.386106 C 117.335986 222.572505 115.501808 222.757832 113.667631 222.943159 C 110.870195 223.181465 108.070615 223.412967 105.278912 223.645726 C 105.011239 223.66276 104.741237 223.684269 104.470162 223.702375 C 103.624172 223.75954 102.77711 223.813303 101.937924 223.868323 C 101.051477 223.915797 100.1627 223.967745 99.277325 224.018621 C 98.355967 224.062136 97.438012 224.104578 96.516654 224.148093 C 95.254402 224.201796 93.987674 224.25317 92.724349 224.303471 C 90.757933 224.365901 88.791516 224.428331 86.826357 224.482885 C 84.829876 224.521127 82.835539 224.566175 80.839244 224.593138 C 78.870167 224.611524 76.893213 224.628651 74.923064 224.643634 C 73.649387 224.637353 72.37571 224.631072 71.103106 224.628193 C 70.787284 224.622999 70.472536 224.621207 70.161189 224.618342 C 69.241832 224.608863 68.322474 224.599383 67.408849 224.584357 C 66.521184 224.568629 65.640325 224.550757 64.751588 224.531627 C 63.911371 224.512167 63.06901 224.485902 62.225576 224.456234 C 61.41598 224.427124 60.607457 224.401415 59.799119 224.364428 C 59.003133 224.331028 58.210549 224.296555 57.414562 224.263156 C 56.654744 224.225838 55.895998 224.191922 55.135107 224.151202 C 54.409127 224.11444 53.686549 224.076607 52.959496 224.036443 C 52.277561 223.997021 51.591151 223.955269 50.909216 223.915847 C 50.263448 223.872508 49.617681 223.829168 48.976388 223.788158 C 48.375738 223.74556 47.775088 223.702962 47.172294 223.65356 C 46.616761 223.611704 46.063558 223.565374 45.508026 223.523518 C 44.998868 223.474527 44.491855 223.432341 43.9861 223.382278 C 43.677455 223.352381 43.373284 223.324813 43.063566 223.291514 C 42.91712 223.277823 42.7662 223.261802 42.61528 223.24578 C 42.347277 223.214295 42.069067 223.186026 41.799992 223.151138 C 41.668228 223.136561 41.536464 223.121983 41.401298 223.108477 C 41.169463 223.073074 40.931896 223.043217 40.693257 223.009958 C 40.584052 222.995751 40.466969 222.980287 40.356691 222.962678 C 40.156365 222.932305 39.958368 222.897458 39.759114 222.870488 C 39.66692 222.85092 39.575799 222.834754 39.477873 222.820733 C 39.318188 222.788772 39.162979 222.759142 39.002223 222.723779 C 38.930258 222.709057 38.85489 222.695406 38.779523 222.681756 C 38.663884 222.647135 38.549317 222.615917 38.426873 222.583441 C 38.374064 222.570162 38.320183 222.55348 38.267375 222.540201 C 38.193451 222.507394 38.117196 222.479063 38.044345 222.449658 C 37.979741 222.398953 37.917281 222.355053 37.857152 222.306678 C 37.808673 222.23593 37.763597 222.16411 37.716376 222.085485 C 37.66202 221.960485 37.608922 221.827608 37.554566 221.702607 C 37.53079 221.639035 37.512561 221.581195 37.49326 221.519953 C 37.498332 221.417367 37.496599 221.316925 37.497197 221.212009 C 37.508146 221.163675 37.515693 221.116413 37.523239 221.069151 C 37.580934 220.991123 37.63863 220.913096 37.699727 220.833996 C 37.736452 220.796239 37.774249 220.761886 37.807571 220.725202 C 37.929169 220.671918 38.042889 220.617377 38.164487 220.564093 C 38.22806 220.540317 38.295034 220.515469 38.365411 220.489549 C 38.544107 220.463154 38.72173 220.433357 38.902756 220.402487 C 38.999981 220.390547 39.093803 220.379679 39.19443 220.366667 C 39.435956 220.361614 39.67641 220.353158 39.917936 220.348105 C 40.044339 220.34567 40.174144 220.342164 40.305021 220.34206 C 40.612779 220.357276 40.916063 220.370162 41.227224 220.384305 C 41.758941 220.433667 42.297462 220.480884 42.828106 220.526844 C 42.877698 220.529916 42.920485 220.535132 42.970077 220.538205 C 43.089489 220.549194 43.206571 220.564659 43.321509 220.573319 C 43.386855 220.578906 43.455603 220.583422 43.517547 220.590082 C 43.739545 220.606144 43.967091 220.627938 44.195894 220.641855 C 44.467485 220.660989 44.739075 220.680123 45.007264 220.700329 C 46.164704 220.776906 47.324475 220.849008 48.486575 220.916635 C 50.957408 221.054301 53.431828 221.179616 55.899629 221.295796 C 57.976427 221.381852 60.051968 221.475785 62.128766 221.561841 C 63.265277 221.607611 64.398385 221.654453 65.537226 221.695749 C 67.817794 221.740027 70.094959 221.785377 72.375527 221.829655 C 73.517069 221.843917 74.658611 221.858179 75.800153 221.872441 C 78.080576 221.85692 80.360999 221.841399 82.642495 221.82928 C 83.780119 221.807374 84.924362 221.794603 86.060728 221.780574 C 88.334202 221.707399 90.599798 221.632965 92.868798 221.55746 C 94.00339 221.514068 95.137983 221.470675 96.269173 221.428355 C 98.518871 221.291607 100.762837 221.160406 103.010205 221.028133 C 104.128342 220.956264 105.249882 220.883323 106.368019 220.811454 C 108.581404 220.618826 110.795862 220.429599 113.006917 220.241445 C 114.107527 220.137697 115.204734 220.035022 116.306416 219.934676 C 118.473282 219.689384 120.640148 219.444091 122.803611 219.199871 C 123.879889 219.066388 124.953836 218.937381 126.034588 218.806228 C 128.13918 218.505756 130.247174 218.204212 132.352839 217.907142 C 132.876574 217.824368 133.401382 217.744997 133.922787 217.666699 C 134.954504 217.498636 135.98622 217.330574 137.019009 217.165914 C 138.543139 216.898768 140.073001 216.626075 141.598203 216.362331 C 141.944501 216.298076 142.287396 216.234893 142.630291 216.17171 C 143.332021 216.036581 144.036081 215.896977 144.73781 215.761847 C 145.09217 215.68757 145.445272 215.621171 145.79623 215.547966 C 146.515157 215.396196 147.230682 215.245498 147.954083 215.096058 C 148.67534 214.939813 149.389793 214.785713 150.112122 214.63287 C 151.589031 214.287099 153.065939 213.941328 154.542848 213.595557 C 155.283633 213.418197 156.026747 213.236362 156.767531 213.059002 C 158.266668 212.665082 159.77028 212.273492 161.271562 211.886377 C 162.022924 211.683241 162.771957 211.48458 163.520989 211.285919 C 165.01728 210.859234 166.519304 210.427001 168.02007 210.002646 C 168.767143 209.785901 169.517619 209.568083 170.26362 209.347936 C 171.742384 208.889372 173.217745 208.431879 174.696509 207.973315 C 175.426941 207.739373 176.161849 207.50776 176.894426 207.280623 C 178.323969 206.796428 179.751181 206.316707 181.184127 205.83144 C 181.889856 205.590322 182.595586 205.349204 183.300243 205.104683 C 184.662295 204.608096 186.016471 204.11025 187.378523 203.613663 C 187.713396 203.489423 188.047198 203.361781 188.382071 203.237541 C 189.028187 202.985289 189.68218 202.734294 190.331698 202.480969 C 191.28118 202.099446 192.227259 201.718994 193.17674 201.337471 C 193.345971 201.269175 193.514129 201.197477 193.68336 201.129182 C 194.050298 200.976135 194.418494 200.815212 194.792236 200.660021 C 194.983139 200.577414 195.170639 200.49588 195.358139 200.414346 C 195.966128 200.147928 196.574117 199.881509 197.184436 199.610616 C 197.834696 199.312174 198.482626 199.018206 199.137361 198.722094 C 200.050345 198.295969 200.967802 197.872174 201.884188 197.444977 C 202.85198 196.979137 203.816369 196.514369 204.784161 196.048529 C 205.271996 195.816238 205.758758 195.580544 206.244448 195.341448 C 207.733396 194.606633 209.21554 193.873963 210.695539 193.134487 C 211.666032 192.641614 212.63205 192.14641 213.608275 191.64799 C 213.842707 191.525483 214.081614 191.405306 214.32285 191.280655 C 215.019341 190.915279 215.716904 190.553305 216.414467 190.191331 C 217.080336 189.835606 217.747278 189.483282 218.409746 189.128629 C 219.040334 188.791503 219.66985 188.450975 220.294891 188.108117 C 220.874444 187.787075 221.458472 187.468363 222.033551 187.144992 C 222.387807 186.939838 222.740805 186.742561 223.095061 186.537407 C 223.579163 186.257668 224.057718 185.972197 224.541819 185.692459 C 226.276045 184.655925 228.01027 183.619392 229.744496 182.582859 C 227.515615 181.385244 225.29121 180.189959 223.066804 178.994674 C 221.311018 177.980845 219.557376 176.973821 217.806063 175.962322 C 216.933366 175.44816 216.060669 174.933997 215.192447 174.422165 C 213.476086 173.343547 211.762055 172.260454 210.053571 171.183094 C 209.199514 170.633134 208.34886 170.082102 207.495876 169.535545 C 205.820198 168.384261 204.143449 167.229574 202.474576 166.076145 C 201.635757 165.491461 200.803744 164.904632 199.968328 164.318875 C 198.328859 163.092594 196.684916 161.863983 195.044375 160.6343 C 194.226527 160.009344 193.414226 159.390121 192.592976 158.766237 C 190.979695 157.456897 189.367486 156.15096 187.754204 154.84162 C 187.354601 154.511244 186.950522 154.178537 186.550919 153.848161 C 185.750825 153.172726 184.955391 152.488342 184.1587 151.811835 C 183.760354 151.473582 183.359864 151.128524 182.962776 150.782393 C 182.17093 150.085658 181.379084 149.388923 180.585093 148.685382 C 180.190335 148.334777 179.795578 147.984172 179.40315 147.629093 C 178.611675 146.909799 177.827005 146.18836 177.040004 145.471396 C 176.645432 145.109512 176.254262 144.746555 175.86202 144.380196 C 175.083267 143.641931 174.303443 142.900264 173.518071 142.152864 C 173.131561 141.780958 172.737175 141.407794 172.350665 141.035889 C 171.571211 140.271663 170.796232 139.509767 170.020181 138.744469 C 168.858177 137.573427 167.700647 136.404715 166.538642 135.233673 C 165.968383 134.646636 165.394722 134.060672 164.830009 133.479367 C 163.74696 132.309624 162.660509 131.140953 161.575129 129.975684 C 161.04211 129.388131 160.511236 128.807384 159.978217 128.219831 C 158.970721 127.052459 157.961967 125.892963 156.954471 124.72559 C 156.460837 124.144327 155.967203 123.563064 155.473569 122.9818 C 154.542698 121.820201 153.615229 120.657529 152.68543 119.499332 C 152.229037 118.917553 151.774788 118.342578 151.318394 117.760799 C 150.46522 116.608375 149.615449 115.454879 148.761203 114.299053 C 148.350999 113.721418 147.93399 113.145928 147.518054 112.57384 C 146.741506 111.427189 145.971762 110.278394 145.196286 109.135146 C 144.818662 108.565944 144.443368 107.992269 144.067002 107.41519 C 143.3771 106.282375 142.678249 105.1449 141.986203 104.005281 C 141.651367 103.441296 141.312055 102.874981 140.979549 102.306522 C 140.363942 101.183955 139.749593 100.053511 139.138461 98.933274 C 138.837463 98.369846 138.544341 97.807675 138.247817 97.246577 C 137.71331 96.132113 137.183278 95.01998 136.648771 93.905516 C 136.392705 93.354109 136.137896 92.794825 135.884159 92.238944 C 135.429494 91.14046 134.978232 90.040905 134.526969 88.941349 C 134.317092 88.394086 134.095936 87.846639 133.886058 87.299376 C 133.51804 86.214728 133.150022 85.13008 132.774127 84.044175 C 132.607037 83.502129 132.430813 82.966703 132.255846 82.423399 C 131.971072 81.353659 131.687371 80.287322 131.399195 79.218654 C 131.265757 78.688444 131.135722 78.157162 130.99781 77.624622 C 130.800755 76.57212 130.596896 75.521763 130.393036 74.471406 C 130.347711 74.208909 130.300056 73.950887 130.255803 73.691793 C 130.184309 73.168243 130.107083 72.65024 130.033259 72.131165 C 129.996883 71.873329 129.963909 71.61442 129.927533 71.356583 C 129.873938 70.842354 129.822672 70.32365 129.770149 69.812823 C 129.745052 69.555172 129.719956 69.297521 129.697004 69.046674 C 129.662565 68.533888 129.629198 68.024504 129.592428 67.516193 C 129.584158 67.26446 129.568011 67.011469 129.555266 66.757406 C 129.54553 66.251795 129.528989 65.748329 129.520325 65.246121 C 129.515457 64.993316 129.516136 64.746243 129.511268 64.493438 C 129.522833 63.996075 129.529923 63.496383 129.541488 62.99902 C 129.548972 62.749803 129.554125 62.50506 129.566083 62.258172 C 129.596805 61.762253 129.628598 61.269736 129.661464 60.780622 C 129.676824 60.532662 129.694329 60.291507 129.714165 60.045878 C 129.768517 59.553732 129.821611 59.069463 129.874705 58.585194 C 129.97574 57.861399 130.084652 57.138862 130.185687 56.415067 C 130.228081 56.169808 130.26833 55.917745 130.30858 55.665682 C 130.397286 55.211333 130.480444 54.751251 130.568078 54.2935 C 130.611173 54.074202 130.654454 53.843626 130.693074 53.621998 C 130.78444 53.211694 130.878136 52.796915 130.96843 52.383209 C 131.012412 52.178593 131.061941 51.97971 131.110397 51.777424 C 131.206939 51.395411 131.306884 51.012326 131.41023 50.628168 C 131.465121 50.446297 131.517866 50.25762 131.566137 50.066614 C 131.681464 49.708603 131.799122 49.346117 131.908902 48.982374 C 131.971669 48.80176 132.027632 48.623291 132.086996 48.443749 C 132.224697 48.097388 132.352376 47.742965 132.484529 47.390872 C 132.558576 47.210444 132.62689 47.035562 132.694132 46.857278 C 132.847771 46.502154 133.004814 46.145957 133.157381 45.787431 C 133.23483 45.60593 133.316753 45.426759 133.399749 45.250991 C 133.580793 44.876009 133.758435 44.502099 133.937149 44.131592 C 134.243646 43.537539 134.547813 42.94796 134.85198 42.358382 C 135.026549 42.034064 135.201119 41.709746 135.371214 41.383099 C 135.748088 40.763125 136.126034 40.146554 136.506311 39.525509 C 136.691789 39.223935 136.887474 38.919145 137.079756 38.615426 C 137.502263 38.033435 137.919038 37.456991 138.335812 36.880547 C 138.54921 36.596356 138.761536 36.308763 138.979409 36.026903 C 139.438414 35.489513 139.899749 34.947649 140.358755 34.41026 C 140.590938 34.150071 140.828854 33.884335 141.062295 33.616269 C 141.563531 33.117934 142.068169 32.618527 142.572807 32.11912 C 142.828436 31.873984 143.085137 31.63225 143.343096 31.382639 C 143.894439 30.924617 144.441308 30.464265 144.990507 29.999437 C 145.263849 29.774901 145.547398 29.547148 145.827544 29.320466 C 146.418974 28.894694 147.011476 28.472324 147.602906 28.046551 C 147.904167 27.839398 148.208832 27.631172 148.510093 27.424018 C 149.150558 27.035155 149.789951 26.642891 150.427014 26.255101 C 151.437819 25.71212 152.450955 25.164664 153.462832 24.625085 C 153.780178 24.468967 154.094122 24.31392 154.413798 24.153327 C 155.05814 23.871711 155.702483 23.590095 156.340021 23.310624 C 156.6638 23.174919 156.98758 23.039215 157.314762 22.902438 C 157.973044 22.665052 158.630254 22.424265 159.288536 22.186879 C 159.622151 22.070517 159.952365 21.955226 160.282578 21.839936 C 160.956057 21.638904 161.630609 21.441274 162.301759 21.244717 C 162.64288 21.152171 162.976125 21.058367 163.316174 20.962418 C 163.996789 20.807761 164.683135 20.647558 165.367152 20.491828 C 165.711305 20.420769 166.056716 20.341832 166.400869 20.270772 C 167.093278 20.153541 167.785688 20.03631 168.474695 19.920151 C 168.825281 19.869505 169.172466 19.819932 169.52198 19.765884 C 170.223854 19.690553 170.925729 19.615223 171.631006 19.53882 C 171.984624 19.50966 172.332695 19.474769 172.68524 19.442207 C 173.392105 19.406447 174.103445 19.373017 174.811382 19.340659 C 175.163556 19.330656 175.523608 19.32191 175.87704 19.30403 C 176.587638 19.315718 177.303968 19.321858 178.016895 19.32907 C 178.375504 19.339481 178.734112 19.349892 179.087173 19.354571 C 179.805091 19.401354 180.520679 19.452612 181.238597 19.499395 C 181.596834 19.532364 181.953999 19.561932 182.311164 19.591499 C 183.034072 19.677852 183.751248 19.769752 184.467352 19.85825 C 184.824146 19.910376 185.184342 19.96143 185.546868 20.008009 C 186.26456 20.13715 186.979921 20.270765 187.697613 20.399905 C 188.057438 20.473518 188.415119 20.540325 188.774944 20.613938 C 189.489749 20.781391 190.205627 20.952246 190.922576 21.126504 C 191.280958 21.219273 191.633793 21.306309 191.992175 21.399078 C 192.706238 21.611648 193.416899 21.825291 194.130962 22.037861 C 194.4879 22.149786 194.840364 22.259381 195.193901 22.372378 C 195.901675 22.624334 196.609449 22.876289 197.314893 23.132719 C 197.670388 23.2638 198.018006 23.393624 198.373502 23.524705 C 199.072657 23.82052 199.771812 24.116335 200.468822 24.405345 C 201.510008 24.896329 202.546719 25.384983 203.589162 25.86809 C 204.007633 26.080312 204.43398 26.293792 204.854781 26.501539 C 205.645161 26.944397 206.437871 27.38278 207.228251 27.825638 C 207.616101 28.04751 208.005022 28.272785 208.390541 28.499132 C 209.121824 28.968096 209.854179 29.440462 210.586533 29.912828 C 210.943576 30.15563 211.302949 30.393957 211.659991 30.636759 C 212.342012 31.151171 213.027435 31.664509 213.707126 32.183395 C 214.043569 32.44391 214.381085 32.707828 214.715198 32.972818 C 215.361381 33.539667 216.005234 34.11099 216.654819 34.676767 C 216.967074 34.967347 217.288279 35.262586 217.608412 35.554424 C 218.227521 36.18965 218.847888 36.816999 219.466997 37.452225 C 219.778696 37.776643 220.08126 38.10768 220.391887 38.428695 C 220.996273 39.135887 221.608537 39.844335 222.213995 40.554929 C 222.364463 40.735665 222.512601 40.920876 222.667543 41.103942 C 222.969365 41.480097 223.273332 41.863056 223.572824 42.243684 C 223.723107 42.4357 223.873389 42.627716 224.028146 42.822061 C 224.330669 43.224177 224.633193 43.626292 224.933386 44.032882 C 225.09136 44.237434 225.241456 44.440729 225.394955 44.642952 C 225.69818 45.071028 226.00588 45.501434 226.308032 45.926108 C 226.769746 46.595978 227.234863 47.264775 227.695505 47.931241 C 227.727343 47.984792 227.761511 48.033868 227.795679 48.082945 C 227.859912 48.156208 227.922 48.222667 227.981758 48.293601 C 228.010565 48.325665 228.0383 48.354327 228.067107 48.386392 C 228.121874 48.417755 228.17557 48.445716 228.222461 48.475821 C 228.247164 48.482997 228.272939 48.493575 228.295312 48.505225 C 228.338471 48.487883 228.376969 48.479491 228.422272 48.468953 C 228.468502 48.402019 228.523682 48.339746 228.570984 48.276214 C 228.586037 48.252769 228.595543 48.223591 228.608451 48.193341 C 228.649134 48.120674 228.688746 48.044606 228.732831 47.970867 C 228.7504 47.931668 228.7737 47.886922 228.799146 47.84898 C 228.858284 47.751796 228.919753 47.650137 228.978891 47.552953 C 229.011327 47.501588 229.04269 47.44682 229.076198 47.398857 C 229.153791 47.277155 229.231385 47.155453 229.305576 47.034824 C 229.347146 46.976839 229.391046 46.91438 229.42707 46.850663 C 229.52186 46.712321 229.615579 46.570576 229.70804 46.436708 C 229.807491 46.289416 229.902281 46.151074 229.99833 46.004855 C 230.227152 45.67466 230.460448 45.346795 230.692672 45.015528 C 230.815053 44.846048 230.934031 44.677641 231.053009 44.509234 C 231.318556 44.141283 231.587504 43.77226 231.856453 43.403237 C 232.124329 43.030811 232.395608 42.657314 232.666887 42.283816 C 233.252603 41.519478 233.834916 40.756213 234.416157 39.989545 C 234.56254 39.80128 234.702118 39.61516 234.8485 39.426896 C 235.123883 39.078287 235.399265 38.729677 235.674647 38.381068 C 236.059131 37.915789 236.43681 37.452654 236.819149 36.980569 C 237.066571 36.685656 237.311662 36.395217 237.559084 36.100303 C 238.107994 35.515878 238.652428 34.929123 239.201338 34.344698 C 239.481525 34.046939 239.763857 33.755984 240.042786 33.466101 C 240.650237 32.889409 241.257688 32.312716 241.863881 31.7439 C 242.173246 31.455646 242.483683 31.170795 242.794121 30.885944 C 243.44972 30.33148 244.097443 29.775757 244.750712 29.225768 C 245.085852 28.948092 245.41526 28.675964 245.748071 28.402763 C 246.43588 27.87929 247.123688 27.355818 247.811497 26.832346 C 248.156473 26.574012 248.505924 26.318009 248.851973 26.063077 C 249.559454 25.578289 250.270337 25.092428 250.977817 24.607639 C 251.337105 24.370977 251.692989 24.135388 252.047802 23.896396 C 252.764562 23.464787 253.483652 23.028704 254.203815 22.596023 C 254.562731 22.381919 254.919317 22.172291 255.279305 21.96159 C 255.995138 21.586378 256.706496 21.208836 257.425731 20.832551 C 258.475179 20.340976 259.533576 19.854062 260.583025 19.362487 C 260.867048 19.243052 261.154474 19.122545 261.442973 19.00544 C 262.017454 18.786985 262.58746 18.566199 263.165344 18.346671 C 263.451327 18.245321 263.735165 18.137165 264.02688 18.030268 C 264.59633 17.84332 265.169182 17.6553 265.745437 17.466208 C 266.030162 17.372734 266.315959 17.282663 266.602829 17.195994 C 267.17298 17.035007 267.751008 16.875278 268.321159 16.714292 C 268.607843 16.638902 268.891125 16.564585 269.177809 16.489195 C 269.745259 16.355241 270.318256 16.227021 270.886779 16.09647 C 271.17435 16.035762 271.458518 15.976126 271.740542 15.909685 C 272.312982 15.815302 272.878804 15.711785 273.445697 15.611669 C 273.72735 15.567787 274.011333 15.519431 274.291914 15.472147 C 274.860581 15.401395 275.421371 15.329385 275.987708 15.263108 C 276.268103 15.227103 276.549571 15.1945 276.83211 15.1653 C 277.386797 15.121396 277.950433 15.082152 278.50512 15.038248 C 278.785144 15.024801 279.063023 15.00455 279.343047 14.991104 C 279.896105 14.977636 280.453638 14.966497 281.006696 14.953028 C 281.279729 14.953006 281.558496 14.947437 281.83153 14.947414 C 282.379556 14.965454 282.930985 14.982421 283.479012 15.00046 Z M 280.433963 17.740509 C 280.036671 17.749771 279.640451 17.762434 279.243159 17.771695 C 278.439956 17.834077 277.634424 17.900933 276.831221 17.963314 C 276.428898 18.004083 276.01977 18.046997 275.620849 18.086694 C 274.805254 18.216566 273.996463 18.344293 273.18427 18.473093 C 272.776916 18.54537 272.369562 18.617647 271.962208 18.689924 C 271.148902 18.886399 270.330049 19.077143 269.512268 19.271288 C 269.104357 19.377403 268.700921 19.485848 268.29301 19.591963 C 267.473044 19.850382 266.656481 20.107729 265.840989 20.368478 C 265.435924 20.507359 265.029787 20.642837 264.617918 20.783862 C 263.807046 21.10674 262.994916 21.437496 262.180641 21.761446 C 260.974314 22.324905 259.767987 22.888363 258.558257 23.452894 C 258.287472 23.590598 258.016687 23.728302 257.742499 23.867079 C 257.240499 24.137497 256.737241 24.415792 256.228435 24.688355 C 255.982539 24.821956 255.735384 24.963434 255.486085 25.098107 C 255.02347 25.374814 254.55638 25.649191 254.08696 25.928043 C 253.860219 26.063087 253.634551 26.201533 253.402079 26.342124 C 252.960764 26.627079 252.523924 26.914364 252.082609 27.19932 C 251.866963 27.345828 251.651316 27.492337 251.434598 27.635444 C 251.007594 27.942071 250.587394 28.246553 250.167195 28.551036 C 249.953693 28.704349 249.742336 28.864468 249.529906 29.021184 C 249.114883 29.353957 248.693055 29.688875 248.276959 30.018247 C 248.063086 30.194119 247.853873 30.361042 247.645733 30.531367 C 247.221018 30.904598 246.794159 31.271024 246.368372 31.640852 C 246.151983 31.832478 245.938997 32.023032 245.724939 32.210184 C 245.280326 32.627089 244.83464 33.040591 244.39343 33.456423 C 243.691745 34.137621 242.993462 34.817746 242.291777 35.498943 C 242.05083 35.743192 241.805408 35.985111 241.563389 36.225959 C 241.067143 36.763864 240.567495 37.302841 240.066775 37.838416 C 239.819725 38.110771 239.570344 38.387601 239.318819 38.657626 C 238.825234 39.239576 238.329504 39.814722 237.834846 40.393269 C 237.589755 40.683708 237.340189 40.971817 237.100644 41.267989 C 236.63069 41.853712 236.160736 42.439436 235.690781 43.025159 C 235.462516 43.321516 235.228704 43.612141 235.002769 43.904023 C 234.582777 44.47026 234.159384 45.037569 233.742795 45.602734 C 233.641199 45.743221 233.541934 45.879234 233.440338 46.019721 C 233.250942 46.285126 233.060288 46.558409 232.870892 46.823814 C 232.780762 46.953207 232.689373 47.090477 232.59584 47.220943 C 232.428116 47.472038 232.256989 47.724205 232.085863 47.976372 C 232.003795 48.095744 231.923871 48.22192 231.8384 48.342364 C 231.694678 48.574674 231.550956 48.806983 231.403831 49.040365 C 231.330898 49.153118 231.262439 49.2682 231.19631 49.378808 C 231.075518 49.58893 230.953653 49.79565 230.83286 50.005772 C 230.774794 50.106358 230.716728 50.206944 230.665466 50.305386 C 230.569934 50.488846 230.480133 50.666759 230.38693 50.845744 C 230.343731 50.934164 230.300532 51.022584 230.261993 51.102055 C 230.197453 51.253306 230.140789 51.405814 230.077506 51.549188 C 230.051504 51.620967 230.02443 51.689344 229.999501 51.764526 C 229.974015 51.873546 229.946199 51.987041 229.922857 52.102865 C 229.920817 52.226938 229.925581 52.348866 229.928015 52.475269 C 229.933376 52.49228 229.938737 52.509292 229.940696 52.527376 C 229.966802 52.586474 229.986103 52.647716 230.009879 52.711288 C 230.024004 52.74424 230.034727 52.778263 230.047594 52.819091 C 230.100507 52.963248 230.155564 53.114209 230.208477 53.258365 C 230.397795 53.752262 230.580309 54.248304 230.76408 54.736468 C 230.904775 55.099819 231.04547 55.463169 231.180618 55.820786 C 231.520282 56.708654 231.864606 57.587573 232.202125 58.468637 C 232.408043 59.050809 232.609487 59.630652 232.812003 60.213897 C 232.914426 60.503282 233.012375 60.790337 233.107993 61.081867 C 233.280259 61.652203 233.446978 62.216808 233.616914 62.791619 C 233.694633 63.073828 233.7779 63.36177 233.859022 63.642907 C 233.996378 64.209285 234.130331 64.776735 234.267687 65.343113 C 234.330725 65.626209 234.398238 65.911636 234.461276 66.194732 C 234.562464 66.765028 234.668126 67.337654 234.775046 67.902403 C 234.822145 68.194263 234.871573 68.481648 234.91993 68.765631 C 234.994971 69.347908 235.065538 69.927854 235.143981 70.509058 C 235.176398 70.801805 235.205413 71.095624 235.24016 71.383896 C 235.287797 71.98603 235.330959 72.585834 235.375193 73.18904 C 235.394001 73.486076 235.416025 73.793319 235.432503 74.09483 C 235.449333 74.717893 235.466163 75.340957 235.481736 75.971898 C 235.478133 76.945508 235.471128 77.92019 235.467526 78.8938 C 235.453631 79.395637 235.444211 79.899804 235.429058 80.409518 C 235.418131 80.730886 235.410422 81.062461 235.400567 81.387232 C 235.391269 81.678164 235.376424 81.963364 235.367126 82.254296 C 235.354137 82.426703 235.351354 82.595893 235.342839 82.77063 C 235.331107 82.935159 235.32152 83.106494 235.31319 83.269951 C 235.292798 83.549419 235.267932 83.826556 235.246468 84.102621 C 235.232962 84.237788 235.221787 84.36848 235.207209 84.500244 C 235.173063 84.724201 235.13999 84.951561 235.104772 85.172117 C 235.08609 85.278992 235.070811 85.384795 235.050872 85.499547 C 235.002601 85.690554 234.955403 85.884962 234.904802 86.080444 C 234.877356 86.171379 234.852056 86.26912 234.822281 86.36453 C 234.757184 86.549619 234.687612 86.732377 234.619112 86.918538 C 234.585935 87.015021 234.54721 87.105771 234.51296 87.198852 C 234.422789 87.399323 234.332618 87.599795 234.241374 87.796864 C 234.07664 88.140523 233.914237 88.479708 233.748431 88.819965 C 233.671353 88.978908 233.593203 89.134447 233.512723 89.294462 C 233.351247 89.57725 233.192101 89.855563 233.031697 90.141754 C 232.950515 90.275807 232.870406 90.413263 232.789225 90.547316 C 232.621686 90.787132 232.456478 91.022473 232.284464 91.259958 C 232.201324 91.375928 232.117111 91.488495 232.033971 91.604464 C 231.859297 91.797904 231.678891 91.996892 231.504217 92.190332 C 231.416973 92.281413 231.328471 92.38037 231.241227 92.471451 C 231.050284 92.625135 230.860413 92.782222 230.678419 92.940567 C 230.581339 93.012306 230.485331 93.087447 230.391653 93.158113 C 230.188915 93.274372 229.990651 93.392961 229.785583 93.513694 C 229.686544 93.567349 229.58303 93.618674 229.480588 93.673401 C 229.263725 93.756708 229.051521 93.831067 228.831256 93.915446 C 228.72238 93.949759 228.614578 93.987475 228.5023 94.02286 C 228.264692 94.064081 228.033703 94.114438 227.80057 94.157989 C 227.428868 94.189108 227.049289 94.218968 226.677587 94.250087 C 226.502665 94.252851 226.331145 94.254543 226.156223 94.257307 C 225.828607 94.214687 225.502063 94.175469 225.175519 94.136252 C 225.016907 94.107693 224.861698 94.078063 224.703086 94.049505 C 224.405761 93.948714 224.11524 93.84578 223.821317 93.743917 C 223.674541 93.681706 223.533312 93.625228 223.391011 93.565348 C 223.129709 93.40084 222.865005 93.237405 222.603703 93.072898 C 222.473237 92.979365 222.348319 92.891564 222.222328 92.800361 C 221.990245 92.574281 221.757089 92.344799 221.525006 92.118719 C 221.411923 91.997266 221.302243 91.874741 221.190232 91.75669 C 220.986296 91.465636 220.789163 91.172436 220.585226 90.881382 C 220.488454 90.728606 220.392754 90.579233 220.29491 90.423055 C 220.120191 90.070428 219.951205 89.712254 219.783292 89.357482 C 219.699428 89.174456 219.618966 88.990359 219.53403 88.803931 C 219.39086 88.385256 219.24769 87.966582 219.103448 87.544505 C 218.925346 86.848838 218.741697 86.147439 218.56145 85.444967 C 218.533241 85.307986 218.503774 85.178882 218.475564 85.041902 C 218.436342 84.7513 218.391388 84.466244 218.348764 84.176715 C 218.327545 84.02631 218.307398 83.879308 218.294055 83.730161 C 218.269886 83.416113 218.245717 83.102066 218.228353 82.785874 C 218.218599 82.624375 218.206514 82.467352 218.19676 82.305853 C 218.198923 81.968546 218.193209 81.629981 218.187495 81.291415 C 218.188133 81.115421 218.194318 80.945159 218.191554 80.770236 C 218.206439 80.413958 218.222583 80.049803 218.236396 79.690122 C 218.249571 79.506436 218.259344 79.323822 218.272519 79.140136 C 218.304788 78.755938 218.339201 78.378545 218.372541 77.997749 C 218.392707 77.800639 218.410542 77.608003 218.42945 77.418771 C 218.482318 77.016859 218.53733 76.621753 218.585724 76.217511 C 218.615024 76.013782 218.643066 75.81793 218.672366 75.614201 C 218.746906 75.197979 218.813569 74.780499 218.882377 74.369824 C 218.919739 74.156074 218.959247 73.949128 218.997682 73.73878 C 219.082614 73.308061 219.170949 72.876271 219.259283 72.444481 C 219.352093 72.01502 219.442758 71.578755 219.531092 71.146965 C 219.767045 70.245999 219.998523 69.342703 220.231074 68.44281 C 220.35702 67.987945 220.481894 67.529678 220.60784 67.074813 C 220.904148 66.139865 221.200456 65.204916 221.501239 64.272298 C 221.655662 63.800978 221.811157 63.33306 221.971312 62.856194 C 222.327605 61.909821 222.688558 60.954499 223.046108 60.00025 C 223.647244 58.572762 224.249637 57.137397 224.853103 55.705435 C 224.921046 55.553112 224.988989 55.400789 225.061406 55.250796 C 225.181353 54.954915 225.306847 54.664765 225.433598 54.366739 C 225.491148 54.228912 225.554431 54.085538 225.61324 53.939835 C 225.709885 53.688699 225.811006 53.439893 225.90658 53.185355 C 225.933468 53.128257 225.955882 53.068829 225.974894 53.010474 C 226.012731 52.905042 226.053971 52.798538 226.091809 52.693106 C 226.110635 52.646029 226.130719 52.591076 226.14507 52.541669 C 226.173588 52.454136 226.20425 52.373407 226.232767 52.285874 C 226.242458 52.245416 226.256624 52.207289 226.269718 52.16576 C 226.284255 52.105074 226.298792 52.044388 226.320133 51.981558 C 226.330196 51.918542 226.340258 51.855527 226.35032 51.792511 C 226.348547 51.763147 226.346773 51.733784 226.347144 51.711225 C 226.324812 51.628497 226.305882 51.544696 226.282477 51.458565 C 226.265135 51.415407 226.251196 51.371176 226.236184 51.323543 C 226.185045 51.20875 226.13605 51.100762 226.080436 50.983639 C 226.054331 50.924541 226.027153 50.862041 226.001047 50.802943 C 225.923245 50.66289 225.845444 50.522837 225.771045 50.381712 C 225.729371 50.30882 225.690027 50.231453 225.64495 50.159632 C 225.548363 49.995577 225.451777 49.831523 225.35519 49.667468 C 225.302422 49.58311 225.248582 49.495351 225.200289 49.413323 C 225.079184 49.230813 224.964884 49.046159 224.842708 48.860247 C 224.783321 48.766755 224.720531 48.674335 224.663474 48.576368 C 224.525729 48.376661 224.392458 48.179284 224.257043 47.975102 C 224.114824 47.773065 223.976006 47.569956 223.840591 47.365774 C 223.521798 46.923903 223.204077 46.485434 222.885284 46.043563 C 222.719804 45.815194 222.556469 45.593629 222.396537 45.370993 C 222.043019 44.913883 221.692903 44.455702 221.341715 43.994118 C 221.161554 43.766635 220.98927 43.540411 220.809108 43.312928 C 220.444126 42.866913 220.081473 42.416423 219.719892 41.969335 C 219.539546 41.753132 219.354724 41.534599 219.17778 41.317323 C 218.82119 40.909806 218.470147 40.508021 218.113556 40.100503 C 218.027136 40.00431 217.940716 39.908117 217.854295 39.811924 C 217.689146 39.632074 217.518449 39.446492 217.349898 39.267715 C 217.113711 39.016746 216.870719 38.767922 216.627728 38.519098 C 216.440205 38.327598 216.251425 38.143975 216.068377 37.954806 C 215.680609 37.590777 215.293914 37.23015 214.903816 36.870596 C 214.712706 36.691448 214.518193 36.513372 214.319205 36.332966 C 213.92319 35.990238 213.520369 35.649654 213.116477 35.305668 C 212.913901 35.137614 212.714728 34.968487 212.511081 34.79703 C 212.102343 34.473273 211.685727 34.148258 211.273587 33.825573 C 211.065279 33.663065 210.854641 33.505032 210.647406 33.345927 C 210.22147 33.038811 209.794277 32.739571 209.369414 32.435857 C 209.157518 32.285701 208.94222 32.136617 208.72585 31.984131 C 208.288264 31.699388 207.854081 31.413572 207.416495 31.128829 C 207.195464 30.985292 206.975506 30.845158 206.760023 30.707353 C 206.30757 30.434776 205.864066 30.166859 205.418232 29.903416 C 204.968996 29.641046 204.516357 29.379748 204.067121 29.117378 C 203.142832 28.653137 202.210666 28.187639 201.286378 27.723399 C 200.816171 27.5013 200.352768 27.277057 199.882562 27.054958 C 198.929941 26.666972 197.970515 26.281131 197.015565 25.897619 C 196.531192 25.713648 196.050221 25.528604 195.565849 25.344632 C 194.589371 25.03523 193.60716 24.731375 192.626208 24.419643 C 192.133216 24.279531 191.645957 24.133872 191.151892 23.990358 C 190.15263 23.762943 189.156769 23.534455 188.160909 23.305967 C 187.66503 23.204168 187.161275 23.101111 186.660922 22.996981 C 185.653555 22.850666 184.650664 22.70668 183.643298 22.560365 C 183.14113 22.49795 182.638963 22.435536 182.132321 22.370791 C 181.127059 22.302359 180.120538 22.241803 179.112946 22.177845 C 178.607892 22.153743 178.10391 22.133044 177.598856 22.108942 C 176.59211 22.130744 175.591096 22.146999 174.590082 22.163254 C 174.085358 22.187672 173.586367 22.206543 173.087375 22.225413 C 172.095084 22.328686 171.101721 22.428557 170.10943 22.53183 C 169.860728 22.561587 169.615429 22.590271 169.367799 22.62343 C 168.87916 22.698883 168.384788 22.779883 167.896148 22.855336 C 167.647261 22.896372 167.406251 22.938666 167.159694 22.975227 C 166.67623 23.078971 166.190622 23.17591 165.705013 23.27285 C 165.463818 23.326423 165.222622 23.379996 164.980354 23.430167 C 164.501179 23.54752 164.019675 23.669348 163.541572 23.790104 C 163.303594 23.853884 163.06114 23.915334 162.823161 23.979114 C 162.351493 24.120284 161.879824 24.261454 161.407083 24.399221 C 161.172321 24.473209 160.937559 24.547196 160.703869 24.624586 C 160.237562 24.782767 159.773399 24.947753 159.308164 25.109337 C 159.076619 25.193532 158.848476 25.276654 158.618003 25.36425 C 158.160274 25.549651 157.705948 25.733979 157.250549 25.914904 C 157.02222 26.009306 156.794964 26.107109 156.566636 26.201511 C 156.122145 26.405181 155.675325 26.613325 155.230834 26.816995 C 155.010197 26.923933 154.786158 27.031944 154.564449 27.13548 C 154.131938 27.365297 153.694954 27.592783 153.261371 27.819197 C 153.043951 27.936342 152.825459 28.050086 152.610184 28.174036 C 152.186437 28.419792 151.760361 28.670022 151.337687 28.91918 C 150.71279 29.321838 150.094698 29.72235 149.468729 30.121605 C 149.407116 30.163465 149.338698 30.207469 149.274755 30.253803 C 149.123938 30.36866 148.970977 30.476711 148.819089 30.588165 C 148.740278 30.646665 148.663612 30.71197 148.588204 30.769399 C 148.413385 30.90304 148.245186 31.045816 148.068038 31.183932 C 147.983309 31.259259 147.894106 31.332256 147.802759 31.398447 C 147.61396 31.558937 147.429636 31.721756 147.240837 31.882245 C 147.145901 31.960789 147.048636 32.043807 146.954773 32.125753 C 146.756654 32.30414 146.557462 32.479126 146.358271 32.654111 C 146.160152 32.832499 145.962033 33.010887 145.763914 33.189275 C 145.361572 33.574156 144.958158 33.955634 144.557075 34.332639 C 143.994927 34.898794 143.440656 35.466207 142.878508 36.032363 C 142.755611 36.164602 142.631643 36.293438 142.508747 36.425677 C 142.286956 36.67137 142.064093 36.91366 141.8389 37.160425 C 141.735345 37.282828 141.629646 37.398427 141.521617 37.5185 C 141.328303 37.747737 141.130514 37.974644 140.93487 38.208357 C 140.746216 38.428645 140.556304 38.65681 140.374269 38.886233 C 140.054615 39.31986 139.733704 39.761364 139.416195 40.201796 C 139.259048 40.427115 139.105305 40.651362 138.951561 40.875609 C 138.664818 41.36619 138.379332 41.848893 138.092589 42.339473 C 138.01947 42.463505 137.948496 42.594341 137.876449 42.721775 C 137.730912 42.9958 137.583046 43.274299 137.439654 43.555128 C 137.214524 44.003849 136.988136 44.460446 136.760676 44.913642 C 136.692918 45.054685 136.624089 45.192326 136.563136 45.331225 C 136.435869 45.592011 136.309674 45.8562 136.189212 46.114842 C 136.126114 46.246936 136.069822 46.376886 136.00458 46.502175 C 135.895582 46.749723 135.783182 46.998343 135.66971 47.243561 C 135.55964 47.487706 135.451901 47.727377 135.342903 47.974925 C 135.158416 48.422057 134.975001 48.872592 134.791586 49.323127 C 134.704446 49.545085 134.616233 49.76364 134.529093 49.985598 C 134.381145 50.406254 134.241074 50.828168 134.096528 51.247751 C 134.029802 51.463275 133.960931 51.671995 133.895463 51.879642 C 133.781353 52.300854 133.672975 52.71652 133.561195 53.133257 C 133.510408 53.340018 133.458364 53.554655 133.408649 53.764818 C 133.328192 54.197866 133.245404 54.635389 133.161544 55.069509 C 133.129728 55.288992 133.091107 55.51062 133.052487 55.732247 C 132.992773 56.207382 132.93306 56.682516 132.876749 57.156578 C 132.853511 57.403279 132.825799 57.647651 132.799159 57.895425 C 132.755344 58.432874 132.718334 58.968178 132.678994 59.507957 C 132.669963 59.645453 132.658602 59.787424 132.650644 59.928323 C 132.633469 60.217998 132.615036 60.515549 132.598934 60.808626 C 132.582193 61.277698 132.556503 61.742109 132.53636 62.212253 C 132.524175 62.541498 132.514321 62.866268 132.498734 63.196585 C 132.488531 63.816948 132.485132 64.435166 132.474929 65.055529 C 132.474395 65.362401 132.476191 65.664798 132.471182 65.96934 C 132.489641 66.561968 132.502553 67.148864 132.524415 67.74042 C 132.533201 68.029393 132.546461 68.320697 132.555247 68.60967 C 132.601111 69.182441 132.649304 69.750737 132.693023 70.316703 C 132.715418 70.601387 132.740144 70.881597 132.764869 71.161806 C 132.837951 71.725999 132.916766 72.284645 132.989848 72.848837 C 133.028183 73.124757 133.064188 73.405153 133.104667 73.687878 C 133.211587 74.252627 133.314033 74.815046 133.414148 75.381939 C 133.473784 75.666108 133.525543 75.949018 133.585179 76.233187 C 133.720019 76.815319 133.854859 77.397451 133.992029 77.975108 C 134.062758 78.270741 134.137963 78.568704 134.203145 78.858605 C 134.372525 79.467255 134.546379 80.078234 134.71683 80.690286 C 135.009006 81.652965 135.301182 82.615644 135.600162 83.576178 C 135.716153 83.932353 135.829815 84.293002 135.945807 84.649176 C 136.198019 85.36637 136.455963 86.078017 136.707102 86.791809 C 136.838848 87.150499 136.968449 87.502384 137.096792 87.862147 C 137.379625 88.56969 137.663531 89.280636 137.941889 89.98585 C 138.087244 90.340251 138.232599 90.694652 138.379026 91.052455 C 138.693553 91.75375 139.002347 92.460593 139.319018 93.168693 C 139.479054 93.522207 139.639091 93.875721 139.798055 94.225833 C 140.140687 94.933232 140.484577 95.632754 140.827209 96.340153 C 141.003 96.696182 141.175573 97.042005 141.351364 97.398035 C 141.729092 98.098113 142.102159 98.807141 142.479887 99.50722 C 142.673762 99.86129 142.864234 100.216433 143.055964 100.563699 C 143.461797 101.269881 143.872105 101.978393 144.280269 102.6801 C 144.488825 103.033284 144.697381 103.386468 144.905938 103.739651 C 145.346681 104.449792 145.793157 105.154386 146.234973 105.86793 C 146.454809 106.221299 146.685924 106.574854 146.912564 106.926078 C 147.388218 107.640178 147.866202 108.349803 148.341855 109.063903 C 148.58192 109.422118 148.828788 109.778188 149.071183 110.131929 C 149.583891 110.856792 150.096785 111.570376 150.610752 112.287363 C 150.873375 112.645948 151.129193 113.006679 151.392888 113.368667 C 151.941765 114.089613 152.489384 114.818435 153.041663 115.538308 C 153.324514 115.901739 153.603963 116.266243 153.878938 116.628417 C 154.469344 117.362456 155.055275 118.094165 155.641207 118.825874 C 155.944287 119.194151 156.243964 119.5635 156.539167 119.93052 C 157.168958 120.670848 157.793017 121.416723 158.422808 122.15705 C 158.738239 122.528916 159.058146 122.903111 159.378052 123.277306 C 160.039165 124.033944 160.709413 124.783963 161.373929 125.539529 C 161.709589 125.91624 162.049724 126.295281 162.388787 126.67092 C 163.097162 127.435105 163.804279 128.207167 164.509252 128.972424 C 164.868543 129.352908 165.226577 129.741269 165.58694 130.125156 C 166.336845 130.902435 167.081017 131.68526 167.830922 132.462539 C 169.003834 133.656325 170.170128 134.840977 171.344299 136.026886 C 171.934786 136.618768 172.528676 137.209578 173.122566 137.800388 C 174.304284 138.939036 175.480454 140.071951 176.656625 141.204865 C 177.245339 141.767384 177.831908 142.323099 178.424025 142.884545 C 179.596648 143.958734 180.768199 145.02952 181.940823 146.103708 C 182.526691 146.633461 183.110229 147.167689 183.698428 147.692968 C 184.865174 148.712904 186.037653 149.727293 187.210131 150.741683 C 187.790824 151.243145 188.374918 151.743535 188.962416 152.242852 C 190.133492 153.20532 191.300093 154.165457 192.473499 155.12345 C 193.060295 155.596806 193.643689 156.071235 194.231557 156.547994 C 195.403561 157.454065 196.580039 158.362466 197.752043 159.268536 C 198.34154 159.71486 198.928707 160.165658 199.518204 160.611981 C 200.700084 161.466315 201.883037 162.324052 203.062587 163.182861 C 203.65693 163.608955 204.245726 164.029318 204.834521 164.44968 C 206.03397 165.264815 207.223397 166.071887 208.413897 166.882362 C 210.221339 168.048224 212.021975 169.216231 213.828345 170.378691 C 214.13994 170.572231 214.454937 170.7647 214.764202 170.962715 C 215.418901 171.354827 216.072341 171.754816 216.727039 172.146928 C 217.058863 172.345314 217.390686 172.5437 217.716963 172.736354 C 218.386343 173.127579 219.05465 173.515402 219.719556 173.904298 C 220.053709 174.098209 220.385719 174.285316 220.719872 174.479228 C 221.374941 174.848781 222.024464 175.212602 222.67846 175.578753 C 223.000448 175.757798 223.322436 175.936842 223.644423 176.115886 C 224.257262 176.446385 224.862223 176.775626 225.470587 177.103795 C 225.620394 177.187492 225.77146 177.263312 225.91572 177.341276 C 226.337407 177.563705 226.763569 177.788464 227.185256 178.010893 C 227.576879 178.209134 227.971904 178.406304 228.357794 178.610092 C 228.600682 178.728039 228.839095 178.843655 229.075178 178.963747 C 229.189374 179.017524 229.309116 179.077033 229.424384 179.134213 C 229.630403 179.230117 229.84537 179.330681 230.053533 179.433389 C 230.153233 179.476774 230.255077 179.526963 230.359251 179.572678 C 230.53735 179.651199 230.71652 179.733122 230.894618 179.811643 C 230.981966 179.85144 231.063768 179.885504 231.154518 179.924229 C 231.295747 179.980707 231.438048 180.040587 231.581607 180.092591 C 231.651057 180.123067 231.718362 180.146739 231.785667 180.170411 C 231.890026 180.204846 231.994386 180.239281 232.102148 180.272644 C 232.209023 180.291326 232.320373 180.312337 232.430651 180.329946 C 232.449807 180.33139 232.464489 180.330503 232.483645 180.331946 C 232.532351 180.320337 232.582128 180.312129 232.630833 180.30052 C 232.658052 180.291942 232.682941 180.287838 232.712489 180.274785 C 232.774804 180.258886 232.841779 180.234038 232.905351 180.210263 C 232.978058 180.179868 233.045033 180.15502 233.11308 180.133574 C 233.287156 180.04505 233.463377 179.963331 233.637453 179.874807 C 233.72843 179.831173 233.821737 179.783066 233.911641 179.73603 C 234.117782 179.618699 234.32052 179.50244 234.523259 179.386181 C 234.623555 179.32465 234.730657 179.260973 234.832026 179.202844 C 235.04194 179.061882 235.252927 178.924323 235.462841 178.783361 C 236.082376 178.363692 236.707644 177.938476 237.326107 177.515404 C 238.566105 176.61967 239.805031 175.720533 241.045029 174.824798 C 241.667451 174.366817 242.287543 173.91331 242.90549 173.452998 C 244.140869 172.495134 245.371773 171.534941 246.607152 170.577077 C 247.220995 170.091877 247.837169 169.602202 248.452085 169.120404 C 249.671565 168.100226 250.89086 167.091327 252.111412 166.074551 C 252.723482 165.559987 253.328748 165.047568 253.937415 164.534077 C 255.141884 163.466265 256.344022 162.402929 257.545087 161.33619 C 258.146249 160.798882 258.747411 160.261575 259.340696 159.723009 C 260.52442 158.613112 261.705814 157.507689 262.889538 156.397792 C 263.475316 155.83541 264.058765 155.277503 264.644544 154.715121 C 265.798389 153.569757 266.951161 152.420991 268.103934 151.272225 C 268.673072 150.692645 269.250087 150.114324 269.82137 149.541549 C 270.940861 148.358388 272.060352 147.175228 273.184318 145.994397 C 273.736815 145.39762 274.291457 144.807648 274.848429 144.213202 C 275.928907 143.001194 277.014931 141.794918 278.09415 140.590786 C 278.631079 139.980215 279.165678 139.374118 279.700277 138.768021 C 280.741555 137.538445 281.77943 136.30994 282.820708 135.080364 C 283.335264 134.458142 283.848562 133.843797 284.36186 133.229452 C 285.353732 131.985524 286.340056 130.735864 287.33533 129.490864 C 287.822852 128.865941 288.311447 128.24442 288.803445 127.621827 C 289.741435 126.361218 290.673693 125.106155 291.613828 123.85235 C 292.074317 123.224726 292.539281 122.599432 292.998698 121.968406 C 293.881364 120.710271 294.76403 119.452136 295.638819 118.192744 C 296.072275 117.562419 296.505731 116.932094 296.935785 116.302841 C 297.75525 115.045923 298.569168 113.783273 299.386302 112.53083 C 299.78592 111.899948 300.186611 111.272469 300.589631 110.640515 C 301.333358 109.392506 302.083889 108.142352 302.831017 106.89327 C 303.198942 106.268637 303.563464 105.645076 303.926914 105.018112 C 304.603851 103.783671 305.275241 102.543498 305.948776 101.31013 C 306.873669 99.473904 307.798562 97.637678 308.724527 95.804854 C 308.981577 95.267528 309.237554 94.726799 309.491201 94.190545 C 309.954451 93.120697 310.418773 92.054252 310.885425 90.983332 C 311.107379 90.453326 311.335065 89.917773 311.557019 89.387767 C 311.960284 88.329344 312.364622 87.274322 312.768959 86.219301 C 312.96155 85.691069 313.156285 85.169641 313.348875 84.641409 C 313.689826 83.598884 314.031849 82.559761 314.372799 81.517236 C 314.534769 80.998654 314.701213 80.482402 314.858708 79.96149 C 315.141818 78.937194 315.421527 77.91397 315.703565 76.886271 C 315.834913 76.37734 315.962859 75.869481 316.102085 75.361808 C 316.319478 74.354482 316.536872 73.347157 316.755338 72.343234 C 316.857138 71.847355 316.957865 71.348075 317.053045 70.843061 C 317.214744 69.86077 317.368565 68.87722 317.522387 67.89367 C 317.596967 67.40637 317.663671 66.917812 317.737179 66.427109 C 317.827428 65.467335 317.925554 64.508819 318.02368 63.550303 C 318.063165 63.070323 318.10032 62.594818 318.139805 62.114838 C 318.173101 61.187974 318.207655 60.253234 318.234332 59.317235 C 318.24534 58.853711 318.25742 58.393589 318.263954 57.927734 C 318.23708 57.023574 318.205731 56.117083 318.177785 55.209521 C 318.153512 54.764596 318.131569 54.315197 318.109626 53.865797 C 318.017922 52.993289 317.925146 52.117379 317.835772 51.240397 C 317.78195 50.808525 317.727056 50.373251 317.673234 49.941379 C 317.523504 49.098379 317.370372 48.256452 317.213838 47.415597 C 317.130467 46.996778 317.048169 46.581361 316.961396 46.163615 C 316.748981 45.359072 316.532091 44.5522 316.318603 43.744255 C 316.201024 43.347438 316.086846 42.949549 315.974999 42.547185 C 315.693094 41.783245 315.415848 41.010355 315.139675 40.240868 C 314.997022 39.859434 314.847563 39.480145 314.702579 39.103185 C 314.36372 38.372155 314.024862 37.641125 313.682601 36.911168 C 313.505738 36.551736 313.328875 36.192304 313.152012 35.832872 C 312.74921 35.148176 312.348738 34.459006 311.944864 33.770908 C 311.276182 32.788498 310.603025 31.803757 309.93094 30.822419 C 309.706774 30.526519 309.484753 30.237423 309.26399 29.94045 C 308.773202 29.391953 308.289033 28.85259 307.798245 28.304092 C 307.550964 28.041658 307.302611 27.775823 307.054258 27.509987 C 306.516168 27.025021 305.980407 26.53558 305.442316 26.050613 C 305.166373 25.815915 304.889358 25.577813 304.612343 25.339712 C 304.032682 24.91273 303.446217 24.487893 302.865483 24.05751 C 302.565353 23.852875 302.268625 23.647169 301.970825 23.43806 C 301.346192 23.070135 300.720486 22.698808 300.089048 22.333028 C 299.776009 22.158644 299.454021 21.979599 299.136508 21.802885 C 298.471377 21.496348 297.808576 21.185335 297.146846 20.877725 C 296.806218 20.734478 296.471322 20.585684 296.133024 20.437962 C 295.435272 20.194069 294.739849 19.945701 294.041025 19.698406 C 293.686416 19.582007 293.33521 19.464535 292.980601 19.348135 C 292.25596 19.16134 291.524515 18.97669 290.795399 18.787565 C 290.428954 18.704818 290.061438 18.618668 289.697323 18.531447 C 288.941134 18.410699 288.187274 18.285476 287.436817 18.159181 C 287.057464 18.106685 286.677039 18.050785 286.296614 17.994886 C 285.522485 17.935896 284.747284 17.873504 283.972083 17.811112 C 283.586627 17.78672 283.194366 17.764473 282.805508 17.741154 C 282.016842 17.74285 281.223701 17.742216 280.433963 17.740509 Z M 226.179386 59.510229 C 225.841403 60.372285 225.496616 61.236485 225.158634 62.098541 C 224.992416 62.532435 224.833003 62.964185 224.669115 63.393604 C 224.382869 64.265537 224.092149 65.135139 223.805903 66.007072 C 223.671378 66.434718 223.535596 66.870241 223.400886 67.309166 C 223.165676 68.165015 222.938342 69.022121 222.707606 69.8803 C 222.599042 70.307244 222.493881 70.733117 222.380843 71.157731 C 222.211535 71.98533 222.044371 72.819733 221.875063 73.647331 C 221.797306 74.053346 221.718292 74.467237 221.641607 74.876655 C 221.533912 75.662393 221.42962 76.447059 221.321925 77.232798 C 221.298542 77.419701 221.273902 77.614481 221.252665 77.808188 C 221.220582 78.181107 221.185097 78.555098 221.151941 78.924615 C 221.138766 79.108301 221.122189 79.293059 221.107756 79.484622 C 221.0952 79.836426 221.081387 80.196107 221.060954 80.546652 C 221.054584 80.728194 221.049471 80.901858 221.044358 81.075523 C 221.04667 81.41516 221.046837 81.747993 221.045746 82.088703 C 221.048696 82.252346 221.051646 82.415989 221.05674 82.586437 C 221.074104 82.902629 221.094871 83.217748 221.114565 83.529466 C 221.123248 83.687562 221.137662 83.840111 221.146344 83.998207 C 221.185566 84.288809 221.217983 84.581556 221.257205 84.872158 C 221.337359 85.28077 221.410708 85.691527 221.486387 86.097809 C 221.533898 86.296032 221.578006 86.495327 221.622114 86.694622 C 221.75619 87.048837 221.891523 87.395176 222.025599 87.749391 C 222.097297 87.917549 222.170067 88.08911 222.241765 88.257268 C 222.419741 88.549024 222.604521 88.838636 222.7859 89.12932 C 222.874981 89.269558 222.974268 89.406579 223.069081 89.541271 C 223.283081 89.76931 223.49941 89.992874 223.719142 90.215366 C 223.829193 90.315333 223.941389 90.422104 224.052513 90.525473 C 224.293772 90.673856 224.536103 90.82564 224.782908 90.979755 C 224.903723 91.042667 225.030085 91.111311 225.151972 91.177625 C 225.414758 91.251898 225.669668 91.324913 225.931381 91.395784 C 226.06296 91.421641 226.195611 91.4509 226.322714 91.474427 C 226.584654 91.46294 226.851069 91.453783 227.117484 91.444626 C 227.185345 91.434459 227.247474 91.42984 227.315336 91.419674 C 227.44677 91.385732 227.580348 91.358595 227.715184 91.323581 C 227.776426 91.304279 227.845546 91.286236 227.906788 91.266935 C 228.039665 91.213837 228.170397 91.153934 228.299872 91.101908 C 228.36363 91.066853 228.429533 91.038603 228.495435 91.010353 C 228.619734 90.930036 228.747435 90.848646 228.872806 90.771732 C 228.934419 90.729872 228.996033 90.688012 229.061048 90.64508 C 229.186791 90.545607 229.305914 90.436999 229.427181 90.335196 C 229.531251 90.250033 229.628702 90.155736 229.727226 90.064841 C 229.914622 89.852429 230.091997 89.631956 230.270444 89.414884 C 230.359131 89.304647 230.450149 89.189936 230.537764 89.076297 C 230.690992 88.814809 230.847622 88.55225 231.001922 88.294164 C 231.078629 88.157781 231.151934 88.02247 231.23097 87.881612 C 231.360052 87.579111 231.492536 87.275537 231.620545 86.969634 C 231.684013 86.814981 231.747481 86.660328 231.81328 86.501201 C 231.919287 86.161088 232.024222 85.817573 232.132559 85.472986 C 232.179386 85.301136 232.228544 85.124811 232.281104 84.947414 C 232.359562 84.56736 232.442495 84.189636 232.522025 83.812985 C 232.561347 83.617318 232.594936 83.427199 232.634258 83.231532 C 232.691786 82.820671 232.746984 82.414286 232.80344 82.000023 C 232.828265 81.793964 232.852019 81.584502 232.878102 81.370566 C 232.91004 80.937848 232.938762 80.494923 232.968555 80.0554 C 232.983545 79.829999 232.992802 79.610145 233.006719 79.381342 C 233.013253 78.915487 233.016384 78.450705 233.027392 77.98718 C 233.026813 77.747985 233.027307 77.512191 233.02547 77.280872 C 233.008744 76.788685 232.989688 76.300973 232.970631 75.813261 C 232.955556 75.563673 232.938151 75.318559 232.930953 75.070228 C 232.885235 74.557257 232.841661 74.05109 232.793612 73.542593 C 232.771918 73.283869 232.746821 73.026218 232.722797 72.77197 C 232.654705 72.247348 232.582139 71.720396 232.514047 71.195773 C 232.475527 70.931132 232.438079 70.669893 232.40296 70.40418 C 232.304619 69.86665 232.213082 69.326975 232.11707 68.78497 C 232.068528 68.512266 232.015326 68.248512 231.966784 67.975809 C 231.844997 67.423226 231.728756 66.876375 231.606969 66.323792 C 231.544818 66.055378 231.483924 65.779086 231.418556 65.500465 C 231.273138 64.944108 231.127719 64.387752 230.989106 63.829251 C 230.910128 63.554919 230.836883 63.275039 230.761308 62.999635 C 230.591187 62.436103 230.42321 61.879375 230.253088 61.315843 C 229.969079 60.47402 229.686142 59.635599 229.405535 58.792703 C 228.974027 57.589674 228.541446 56.383243 228.112267 55.17574 C 227.467973 56.620569 226.822607 58.061997 226.179386 59.510229 Z M 226.179386 59.510229 " stroke="#000000" stroke-width="2.907" stroke-opacity="1" stroke-miterlimit="10"/></g></g></g><g clip-path="url(#cecf307580)"><g clip-path="url(#c2ff84fdb0)"><g clip-path="url(#1af99ec8f4)"><path fill="#7d8e60" d="M 27.632812 228.914062 C 14.078125 224.042969 4.792969 220.148438 4.546875 219.234375 C 3.949219 217.011719 5.597656 216.949219 10.324219 219.011719 C 12.601562 220 21.515625 223.347656 30.140625 226.445312 C 58.257812 236.535156 88.109375 243.84375 114.847656 247.171875 C 133.105469 249.445312 156.15625 249.949219 173.660156 248.457031 C 183.265625 247.644531 202.640625 244.566406 211.566406 242.441406 L 218.023438 240.90625 L 214.550781 237.34375 C 195.953125 218.257812 180.683594 196.578125 167.597656 170.652344 C 148.238281 132.304688 144 99.097656 155.574219 76.375 C 158.59375 70.441406 160.714844 67.5 165.074219 63.226562 C 171.984375 56.445312 180.230469 52.402344 190.347656 50.832031 C 208.640625 47.988281 227.769531 54.546875 242.285156 68.628906 C 251.203125 77.277344 256.046875 85.652344 260.203125 99.605469 C 260.433594 100.375 260.703125 100.59375 261.003906 100.253906 C 262.046875 99.082031 269.265625 93.765625 273.335938 91.175781 C 281.84375 85.75 294.140625 81.503906 303.953125 80.597656 C 320.222656 79.097656 334.773438 83.554688 344.925781 93.148438 C 355.820312 103.449219 359.65625 118.730469 355.597656 135.714844 C 349.90625 159.558594 332.804688 181.359375 302.578125 203.332031 C 282.398438 218 253.628906 232.84375 232.34375 239.582031 C 228.304688 240.859375 224.933594 242.054688 224.859375 242.230469 C 224.570312 242.917969 235.625 251.746094 244.378906 257.8125 C 262.832031 270.609375 283.636719 280.527344 311.671875 289.910156 C 338.074219 298.742188 364.457031 304.917969 396.167969 309.703125 C 400.8125 310.402344 404.898438 311.199219 405.242188 311.472656 C 405.59375 311.753906 405.640625 312.449219 405.347656 313.0625 C 404.863281 314.074219 404.289062 314.070312 397.398438 313.023438 C 379.898438 310.363281 361.40625 306.75 343.972656 302.585938 C 332.054688 299.734375 301.476562 290.101562 291.878906 286.171875 C 264.066406 274.78125 243.253906 262.417969 223.878906 245.769531 L 220.726562 243.066406 L 218.09375 243.839844 C 216.644531 244.269531 211.570312 245.464844 206.820312 246.5 C 165.726562 255.472656 122.796875 254.277344 74.519531 242.824219 C 60.726562 239.550781 40.632812 233.589844 27.632812 228.914062 Z M 225.246094 238.824219 C 263.082031 227.410156 305.058594 202.121094 329.070312 176.273438 C 350.375 153.335938 358.738281 128.4375 351.71875 108.804688 C 345.191406 90.539062 323.785156 80.257812 300.492188 84.199219 C 292.605469 85.53125 287.507812 87.289062 279.539062 91.429688 C 271.546875 95.582031 261.019531 103.351562 261.039062 105.085938 C 261.042969 105.546875 261.191406 108.230469 261.375 111.050781 C 261.914062 119.40625 260.972656 126.199219 258.128906 134.5 C 255.820312 141.25 255.605469 141.65625 253.066406 144.300781 C 249.851562 147.640625 247.167969 148.621094 243.894531 147.644531 C 239.496094 146.328125 237.679688 142.460938 238.316406 135.777344 C 239 128.597656 245.523438 117.03125 254.675781 106.789062 C 256.136719 105.152344 257.417969 103.539062 257.527344 103.195312 C 257.972656 101.773438 254.40625 91.246094 251.742188 86.132812 C 238.84375 61.363281 209.25 47.796875 184.367188 55.257812 C 182.386719 55.851562 178.414062 57.65625 175.539062 59.261719 C 171.410156 61.578125 169.457031 63.101562 166.226562 66.527344 C 160.691406 72.398438 159.007812 75.171875 156.121094 83.203125 C 153.21875 91.289062 152.222656 97.347656 152.289062 106.519531 C 152.433594 126.34375 158.566406 146.683594 172.355469 173.0625 C 182.539062 192.558594 193.230469 208.675781 205.417969 222.921875 C 211.703125 230.261719 220.277344 239.03125 221.570312 239.4375 C 222.011719 239.578125 223.667969 239.296875 225.246094 238.824219 Z M 248.054688 144.460938 C 254.496094 141.527344 259.019531 127.140625 258.414062 111.515625 L 258.253906 107.308594 L 255.820312 110.058594 C 247.734375 119.179688 241.695312 130.449219 241.15625 137.421875 C 240.742188 142.742188 244.164062 146.238281 248.054688 144.460938 Z M 248.054688 144.460938 " fill-opacity="1" fill-rule="nonzero"/></g></g></g></g></g></g><g fill="#f08080" fill-opacity="1"><g transform="translate(76.574605, 258.921352)"><g><path d="M 99.171875 -100.078125 C 99.171875 -97.660156 97.960938 -96.453125 95.546875 -96.453125 L 47.40625 -96.453125 L 47.40625 -76 L 87.953125 -76 C 90.359375 -76 91.5625 -74.796875 91.5625 -72.390625 L 91.5625 -48.140625 C 91.5625 -45.722656 90.359375 -44.515625 87.953125 -44.515625 L 47.40625 -44.515625 L 47.40625 -3.625 C 47.40625 -1.207031 46.203125 0 43.796875 0 L 15.75 0 C 13.332031 0 12.125 -1.207031 12.125 -3.625 L 12.125 -125.765625 C 12.125 -128.179688 13.332031 -129.390625 15.75 -129.390625 L 95.546875 -129.390625 C 97.960938 -129.390625 99.171875 -128.179688 99.171875 -125.765625 Z M 99.171875 -100.078125 "/></g></g></g><g fill="#f08080" fill-opacity="1"><g transform="translate(166.511347, 258.921352)"><g><path d="M 57.90625 1.078125 C 56.34375 1.441406 54.441406 1.773438 52.203125 2.078125 C 49.972656 2.378906 47.289062 2.53125 44.15625 2.53125 C 32.8125 2.53125 23.972656 -0.570312 17.640625 -6.78125 C 11.304688 -13 8.140625 -21.65625 8.140625 -32.75 L 8.140625 -125.765625 C 8.140625 -128.179688 9.347656 -129.390625 11.765625 -129.390625 L 38 -129.390625 C 40.414062 -129.390625 41.625 -128.179688 41.625 -125.765625 L 41.625 -38.546875 C 41.625 -31.546875 44.757812 -28.046875 51.03125 -28.046875 C 51.875 -28.046875 52.6875 -28.046875 53.46875 -28.046875 C 54.257812 -28.046875 55.015625 -28.109375 55.734375 -28.234375 C 58.265625 -28.472656 59.53125 -27.328125 59.53125 -24.796875 L 59.53125 -2.71875 C 59.53125 -0.539062 58.988281 0.722656 57.90625 1.078125 Z M 57.90625 1.078125 "/></g></g></g><g fill="#f08080" fill-opacity="1"><g transform="translate(213.379385, 258.921352)"><g><path d="M 95.015625 -37.453125 C 95.015625 -24.785156 91.117188 -14.953125 83.328125 -7.953125 C 75.546875 -0.960938 64.660156 2.53125 50.671875 2.53125 C 36.796875 2.53125 25.9375 -0.960938 18.09375 -7.953125 C 10.25 -14.953125 6.328125 -24.785156 6.328125 -37.453125 L 6.328125 -56.828125 C 6.328125 -69.609375 10.25 -79.5 18.09375 -86.5 C 25.9375 -93.5 36.796875 -97 50.671875 -97 C 64.660156 -97 75.546875 -93.5 83.328125 -86.5 C 91.117188 -79.5 95.015625 -69.609375 95.015625 -56.828125 Z M 40.359375 -37.453125 C 40.359375 -30.460938 43.796875 -26.96875 50.671875 -26.96875 C 57.546875 -26.96875 60.984375 -30.460938 60.984375 -37.453125 L 60.984375 -56.828125 C 60.984375 -60.203125 60.109375 -62.820312 58.359375 -64.6875 C 56.609375 -66.5625 54.046875 -67.5 50.671875 -67.5 C 47.296875 -67.5 44.734375 -66.5625 42.984375 -64.6875 C 41.234375 -62.820312 40.359375 -60.203125 40.359375 -56.828125 Z M 40.359375 -37.453125 "/></g></g></g><g fill="#f08080" fill-opacity="1"><g transform="translate(300.782657, 258.921352)"><g><path d="M 28.234375 0 C 26.179688 0 24.851562 -1.023438 24.25 -3.078125 L 1.265625 -90.484375 C 0.898438 -91.691406 1.019531 -92.65625 1.625 -93.375 C 2.226562 -94.101562 3.132812 -94.46875 4.34375 -94.46875 L 30.765625 -94.46875 C 32.929688 -94.46875 34.195312 -93.378906 34.5625 -91.203125 L 39.453125 -61.171875 C 40.054688 -56.703125 40.6875 -52.175781 41.34375 -47.59375 C 42.007812 -43.007812 42.585938 -38.425781 43.078125 -33.84375 L 43.796875 -33.84375 C 44.398438 -38.425781 45.0625 -43.34375 45.78125 -48.59375 C 46.507812 -53.84375 47.234375 -58.273438 47.953125 -61.890625 L 53.390625 -89.9375 C 53.742188 -92.113281 55.007812 -93.203125 57.1875 -93.203125 L 84.328125 -93.203125 C 86.503906 -93.203125 87.769531 -92.113281 88.125 -89.9375 L 93.5625 -61.890625 C 94.28125 -58.273438 95.03125 -53.84375 95.8125 -48.59375 C 96.601562 -43.34375 97.238281 -38.425781 97.71875 -33.84375 L 98.453125 -33.84375 C 99.054688 -38.425781 99.65625 -43.007812 100.25 -47.59375 C 100.851562 -52.175781 101.457031 -56.703125 102.0625 -61.171875 L 106.953125 -91.203125 C 107.316406 -93.378906 108.582031 -94.46875 110.75 -94.46875 L 137.171875 -94.46875 C 138.503906 -94.46875 139.441406 -94.101562 139.984375 -93.375 C 140.523438 -92.65625 140.613281 -91.691406 140.25 -90.484375 L 117.265625 -3.078125 C 116.660156 -1.023438 115.332031 0 113.28125 0 L 85.0625 0 C 82.757812 0 81.429688 -1.082031 81.078125 -3.25 L 74.734375 -32.75 C 74.253906 -35.53125 73.648438 -38.878906 72.921875 -42.796875 C 72.203125 -46.722656 71.539062 -49.953125 70.9375 -52.484375 L 70.578125 -52.484375 C 70.097656 -49.953125 69.492188 -46.722656 68.765625 -42.796875 C 68.046875 -38.878906 67.382812 -35.53125 66.78125 -32.75 L 60.4375 -3.25 C 60.082031 -1.082031 58.757812 0 56.46875 0 Z M 28.234375 0 "/></g></g></g><g fill="#f08080" fill-opacity="1"><g transform="translate(428.359274, 258.921352)"><g/></g></g><g fill="#f08080" fill-opacity="1"><g transform="translate(449.892796, 258.921352)"><g><path d="M 15.75 0 C 13.332031 0 12.125 -1.207031 12.125 -3.625 L 12.125 -125.765625 C 12.125 -128.179688 13.332031 -129.390625 15.75 -129.390625 L 46.6875 -129.390625 C 48.613281 -129.390625 50.003906 -128.484375 50.859375 -126.671875 L 62.4375 -103.328125 C 64.488281 -99.347656 66.597656 -94.851562 68.765625 -89.84375 C 70.941406 -84.84375 72.992188 -80.078125 74.921875 -75.546875 C 76.847656 -71.023438 78.296875 -67.4375 79.265625 -64.78125 L 79.984375 -64.78125 C 81.066406 -67.4375 82.546875 -71.023438 84.421875 -75.546875 C 86.296875 -80.078125 88.347656 -84.84375 90.578125 -89.84375 C 92.804688 -94.851562 94.882812 -99.347656 96.8125 -103.328125 L 108.40625 -126.671875 C 109.363281 -128.484375 110.75 -129.390625 112.5625 -129.390625 L 143.515625 -129.390625 C 145.921875 -129.390625 147.125 -128.179688 147.125 -125.765625 L 147.125 -3.625 C 147.125 -1.207031 145.921875 0 143.515625 0 L 116 0 C 113.582031 0 112.375 -1.207031 112.375 -3.625 L 112.375 -16.828125 C 112.375 -24.910156 112.554688 -34.257812 112.921875 -44.875 C 113.285156 -55.5 113.769531 -65.753906 114.375 -75.640625 L 113.46875 -75.828125 C 112.625 -73.410156 111.234375 -69.878906 109.296875 -65.234375 C 107.367188 -60.585938 105.289062 -55.703125 103.0625 -50.578125 C 100.832031 -45.453125 98.8125 -40.898438 97 -36.921875 L 93.921875 -30.21875 C 93.078125 -28.40625 91.691406 -27.5 89.765625 -27.5 L 69.484375 -27.5 C 67.554688 -27.5 66.171875 -28.40625 65.328125 -30.21875 L 62.25 -36.921875 C 60.4375 -40.898438 58.414062 -45.453125 56.1875 -50.578125 C 53.957031 -55.703125 51.90625 -60.585938 50.03125 -65.234375 C 48.164062 -69.878906 46.75 -73.410156 45.78125 -75.828125 L 44.875 -75.640625 C 45.476562 -65.753906 45.960938 -55.5 46.328125 -44.875 C 46.691406 -34.257812 46.875 -24.910156 46.875 -16.828125 L 46.875 -3.625 C 46.875 -1.207031 45.664062 0 43.25 0 Z M 15.75 0 "/></g></g></g><g fill="#f08080" fill-opacity="1"><g transform="translate(595.203589, 258.921352)"><g><path d="M 9.046875 -87.40625 C 13.265625 -89.9375 18.722656 -92.164062 25.421875 -94.09375 C 32.117188 -96.03125 39.507812 -97 47.59375 -97 C 75.101562 -97 88.859375 -82.460938 88.859375 -53.390625 L 88.859375 -6.328125 C 88.859375 -4.160156 87.832031 -2.835938 85.78125 -2.359375 C 79.863281 -0.660156 73.46875 0.578125 66.59375 1.359375 C 59.71875 2.140625 53.445312 2.53125 47.78125 2.53125 C 32.457031 2.53125 21.203125 -0.238281 14.015625 -5.78125 C 6.835938 -11.332031 3.25 -19.238281 3.25 -29.5 C 3.25 -38.550781 6.597656 -45.394531 13.296875 -50.03125 C 19.992188 -54.675781 29.738281 -57 42.53125 -57 C 45.1875 -57 47.566406 -56.910156 49.671875 -56.734375 C 51.785156 -56.554688 53.6875 -56.34375 55.375 -56.09375 L 55.375 -56.46875 C 55.375 -59.957031 54.585938 -62.816406 53.015625 -65.046875 C 51.453125 -67.285156 48.015625 -68.40625 42.703125 -68.40625 C 39.328125 -68.40625 35.675781 -68.007812 31.75 -67.21875 C 27.832031 -66.4375 24.671875 -65.445312 22.265625 -64.25 C 20.085938 -63.039062 18.457031 -63.460938 17.375 -65.515625 L 9.046875 -83.0625 C 7.835938 -85.113281 7.835938 -86.5625 9.046875 -87.40625 Z M 37.28125 -30.765625 C 37.28125 -25.816406 40.71875 -23.34375 47.59375 -23.34375 C 48.914062 -23.34375 50.300781 -23.429688 51.75 -23.609375 C 53.195312 -23.796875 54.40625 -23.945312 55.375 -24.0625 L 55.375 -36.375 C 54.164062 -36.613281 52.867188 -36.820312 51.484375 -37 C 50.097656 -37.1875 48.738281 -37.28125 47.40625 -37.28125 C 40.65625 -37.28125 37.28125 -35.109375 37.28125 -30.765625 Z M 37.28125 -30.765625 "/></g></g></g><g fill="#f08080" fill-opacity="1"><g transform="translate(677.901886, 258.921352)"><g><path d="M 72.03125 -89.9375 C 77.09375 -92.226562 81.734375 -93.976562 85.953125 -95.1875 C 90.179688 -96.394531 94.585938 -97 99.171875 -97 C 111.710938 -97 121.785156 -93.4375 129.390625 -86.3125 C 136.992188 -79.195312 140.796875 -69.25 140.796875 -56.46875 L 140.796875 -3.625 C 140.796875 -1.207031 139.585938 0 137.171875 0 L 111.484375 0 C 109.066406 0 107.859375 -1.207031 107.859375 -3.625 L 107.859375 -57.359375 C 107.859375 -60.503906 107.015625 -62.976562 105.328125 -64.78125 C 103.640625 -66.59375 101.164062 -67.5 97.90625 -67.5 C 96.820312 -67.5 95.582031 -67.40625 94.1875 -67.21875 C 92.800781 -67.039062 91.382812 -66.648438 89.9375 -66.046875 C 90.78125 -63.148438 91.203125 -60.078125 91.203125 -56.828125 L 91.203125 -3.625 C 91.203125 -1.207031 90 0 87.59375 0 L 61.890625 0 C 59.472656 0 58.265625 -1.207031 58.265625 -3.625 L 58.265625 -57.359375 C 58.265625 -60.503906 57.539062 -62.976562 56.09375 -64.78125 C 54.644531 -66.59375 52.351562 -67.5 49.21875 -67.5 C 48.375 -67.5 47.195312 -67.40625 45.6875 -67.21875 C 44.1875 -67.039062 42.832031 -66.710938 41.625 -66.234375 L 41.625 -3.625 C 41.625 -1.207031 40.414062 0 38 0 L 12.3125 0 C 9.894531 0 8.6875 -1.207031 8.6875 -3.625 L 8.6875 -85.421875 C 8.6875 -87.472656 9.59375 -88.921875 11.40625 -89.765625 C 16.832031 -91.929688 22.921875 -93.675781 29.671875 -95 C 36.429688 -96.332031 42.828125 -97 48.859375 -97 C 57.179688 -97 64.90625 -94.644531 72.03125 -89.9375 Z M 72.03125 -89.9375 "/></g></g></g><g fill="#f08080" fill-opacity="1"><g transform="translate(812.535935, 258.921352)"><g><path d="M 9.046875 -87.40625 C 13.265625 -89.9375 18.722656 -92.164062 25.421875 -94.09375 C 32.117188 -96.03125 39.507812 -97 47.59375 -97 C 75.101562 -97 88.859375 -82.460938 88.859375 -53.390625 L 88.859375 -6.328125 C 88.859375 -4.160156 87.832031 -2.835938 85.78125 -2.359375 C 79.863281 -0.660156 73.46875 0.578125 66.59375 1.359375 C 59.71875 2.140625 53.445312 2.53125 47.78125 2.53125 C 32.457031 2.53125 21.203125 -0.238281 14.015625 -5.78125 C 6.835938 -11.332031 3.25 -19.238281 3.25 -29.5 C 3.25 -38.550781 6.597656 -45.394531 13.296875 -50.03125 C 19.992188 -54.675781 29.738281 -57 42.53125 -57 C 45.1875 -57 47.566406 -56.910156 49.671875 -56.734375 C 51.785156 -56.554688 53.6875 -56.34375 55.375 -56.09375 L 55.375 -56.46875 C 55.375 -59.957031 54.585938 -62.816406 53.015625 -65.046875 C 51.453125 -67.285156 48.015625 -68.40625 42.703125 -68.40625 C 39.328125 -68.40625 35.675781 -68.007812 31.75 -67.21875 C 27.832031 -66.4375 24.671875 -65.445312 22.265625 -64.25 C 20.085938 -63.039062 18.457031 -63.460938 17.375 -65.515625 L 9.046875 -83.0625 C 7.835938 -85.113281 7.835938 -86.5625 9.046875 -87.40625 Z M 37.28125 -30.765625 C 37.28125 -25.816406 40.71875 -23.34375 47.59375 -23.34375 C 48.914062 -23.34375 50.300781 -23.429688 51.75 -23.609375 C 53.195312 -23.796875 54.40625 -23.945312 55.375 -24.0625 L 55.375 -36.375 C 54.164062 -36.613281 52.867188 -36.820312 51.484375 -37 C 50.097656 -37.1875 48.738281 -37.28125 47.40625 -37.28125 C 40.65625 -37.28125 37.28125 -35.109375 37.28125 -30.765625 Z M 37.28125 -30.765625 "/></g></g></g></svg>